<svg xmlns="http://www.w3.org/2000/svg" viewBox="0 0 205 70"><g fill="none"><path fill="#fff" d="M143.323 50.504c.928 0 1.82.125 2.673.376s1.606.602 2.258 1.054c.477.351.822.659 1.036.922.213.264.32.534.32.81a.677.677 0 01-.189.47.586.586 0 01-.451.208c-.201 0-.527-.189-.98-.565a10.572 10.572 0 00-2.05-1.243c-.716-.326-1.613-.489-2.693-.489-1.405 0-2.54.333-3.407.998-.866.665-1.299 1.537-1.299 2.616 0 .653.139 1.186.415 1.6.276.414.746.772 1.411 1.073.665.301 1.613.59 2.843.866 1.731.427 3.062.86 3.99 1.299.929.439 1.588.966 1.977 1.581s.583 1.4.583 2.353c0 1.506-.62 2.717-1.863 3.633-1.243.916-2.893 1.374-4.95 1.374-.98 0-1.958-.144-2.937-.433a10.095 10.095 0 01-2.636-1.186c-.502-.326-.84-.596-1.016-.81a1.117 1.117 0 01-.264-.733c0-.176.063-.333.189-.47a.586.586 0 01.451-.208c.126 0 .295.069.509.207l.433.282c.727.527 1.487.96 2.277 1.3.79.338 1.788.507 2.993.507 1.632 0 2.886-.3 3.765-.903.878-.602 1.318-1.456 1.318-2.56 0-.653-.157-1.192-.471-1.619-.314-.427-.828-.797-1.544-1.11-.715-.314-1.738-.622-3.068-.923-2.208-.502-3.79-1.142-4.743-1.92-.954-.778-1.43-1.807-1.43-3.087 0-1.556.608-2.823 1.825-3.802 1.217-.98 2.792-1.468 4.725-1.468zm-18.598 0c2.309 0 4.129.752 5.459 2.258s1.995 3.564 1.995 6.174c0 .452-.088.779-.263.98-.176.2-.49.3-.942.3h-12.949l.008.365c.08 2.283.699 4.056 1.855 5.32 1.218 1.33 2.93 1.995 5.14 1.995 1.204 0 2.202-.163 2.992-.489.79-.326 1.562-.753 2.315-1.28.527-.351.866-.527 1.017-.527a.59.59 0 01.452.207.682.682 0 01.188.47c0 .252-.094.496-.282.735-.189.238-.521.508-.998.81-1.807 1.078-3.677 1.618-5.61 1.618-2.735 0-4.887-.84-6.456-2.522-1.569-1.682-2.353-3.99-2.353-6.927 0-1.883.351-3.54 1.054-4.97.703-1.43 1.694-2.541 2.974-3.332 1.28-.79 2.749-1.185 4.405-1.185zm31.247-8.057c.251 0 .446.075.584.226.138.15.207.364.207.64v10.842l.132-.267a5.887 5.887 0 012.352-2.443c1.105-.628 2.372-.941 3.803-.941 2.183 0 3.833.583 4.95 1.75s1.676 2.893 1.676 5.177v11.068l-.006.133a.846.846 0 01-.201.507c-.139.15-.333.226-.584.226-.251 0-.445-.076-.584-.226-.138-.15-.207-.364-.207-.64v-10.88l-.004-.34c-.043-1.784-.43-3.095-1.163-3.933-.778-.891-2.033-1.337-3.764-1.337-1.933 0-3.483.596-4.65 1.789-1.167 1.192-1.75 2.78-1.75 4.762v9.939l-.006.133a.846.846 0 01-.201.507c-.138.15-.333.226-.584.226a.738.738 0 01-.565-.245.882.882 0 01-.226-.621V43.313l.006-.133c.02-.213.086-.382.202-.507.138-.15.332-.226.583-.226zm-50.786 8.057c4.016 0 6.024 2.309 6.024 6.927v11.068l-.009.145a.88.88 0 01-.198.476c-.138.163-.333.245-.584.245-.25 0-.445-.082-.583-.245a.928.928 0 01-.207-.621v-10.88l-.004-.34c-.039-1.784-.39-3.095-1.05-3.933-.703-.891-1.82-1.337-3.351-1.337-1.757 0-3.156.59-4.198 1.77-1.041 1.18-1.562 2.773-1.562 4.781v9.939l-.008.145a.883.883 0 01-.2.476c-.137.163-.332.245-.583.245-.25 0-.445-.082-.583-.245a.928.928 0 01-.207-.621v-10.88l-.004-.34c-.039-1.784-.39-3.095-1.05-3.933-.703-.891-1.82-1.337-3.351-1.337-1.782 0-3.188.59-4.217 1.77-1.029 1.18-1.543 2.773-1.543 4.781v9.939l-.008.145a.875.875 0 01-.2.476c-.137.163-.332.245-.583.245-.25 0-.445-.082-.583-.245a.928.928 0 01-.207-.621V51.445l.004-.128c.038-.492.3-.738.786-.738.251 0 .44.075.565.226.126.15.188.364.188.64v2.71l.13-.289c.498-1.039 1.202-1.846 2.11-2.421.992-.628 2.165-.941 3.52-.941 2.937 0 4.82 1.217 5.647 3.651.502-1.13 1.293-2.02 2.372-2.673 1.08-.652 2.322-.978 3.727-.978zm19.539 1.468c-1.907 0-3.445.596-4.612 1.788-1.167 1.192-1.85 2.855-2.052 4.988h12.612c-.05-2.183-.59-3.859-1.619-5.026-1.029-1.167-2.472-1.75-4.329-1.75zM186.035 0c.624 0 1.16.208 1.612.625.42.375.652.876.695 1.504l.007.214v20.58l11.83-10.67c.382-.326.79-.488 1.225-.488.556 0 1.042.213 1.46.641.433.428.65.906.65 1.436 0 .426-.164.818-.494 1.176l-.13.133-9.46 8.336 10.345 10.723c.382.393.574.838.574 1.334 0 .547-.226 1.034-.678 1.462-.434.427-.938.641-1.511.641a2.004 2.004 0 01-1.431-.582l-.133-.136-12.247-12.826v11.175c0 .729-.243 1.31-.728 1.744a2.419 2.419 0 01-1.664.625c-.642 0-1.188-.2-1.638-.599-.406-.375-.629-.89-.67-1.547l-.006-.223V2.343c0-.729.234-1.301.702-1.718a2.512 2.512 0 011.69-.625zm-9.412 11.294a2.25 2.25 0 011.612.648c.421.39.653.91.695 1.56l.007.222V35.19c0 .756-.243 1.359-.728 1.809-.468.432-1.023.648-1.664.648s-1.187-.207-1.638-.621c-.406-.389-.629-.924-.67-1.604l-.006-.232V13.724c0-.756.234-1.35.702-1.782a2.462 2.462 0 011.69-.648zM170.301 0v.003l.072.003a1.648 1.648 0 01-.098 3.288h-2.442c-.729 0-1.297.069-1.704.206-.407.12-.771.448-1.094.894-.305.429-.415 1.244-.534 2.068-.092.733-.143 1.707-.151 2.923l-.001.372v1.537h4.235a1.412 1.412 0 110 2.824l-4.236-.001v21.16c0 .657-.196 1.193-.59 1.61l-.137.135a2.419 2.419 0 01-1.664.625c-.642 0-1.188-.2-1.638-.599-.406-.375-.629-.89-.67-1.547l-.006-.223V14.117h-3.765a1.41 1.41 0 110-2.823h3.764V8.495c0-3.072.645-5.251 1.934-6.539 1.219-1.235 2.883-1.886 4.987-1.95l.355-.006h3.383zm-27.796 11.294c2.451 0 4.73.632 6.43 1.78 1.346.909 2.441 2.31 2.883 3.692.254.794.293 1.087.295 2.24.001.716-.018 1.2-.057 1.424-.398 2.265-1.345 3.834-2.988 4.951-1.323.899-2.984 1.425-5.156 1.632-1.093.105-3.093.095-4.388-.021-1.1-.099-2.45-.273-3.026-.39-.482-.098-2.133-.378-2.146-.364-.006.006-.085.508-.175 1.115-.143.97-.164 1.213-.167 1.987-.003.787.008.926.101 1.289.3 1.169.963 1.95 2.165 2.555 1.182.594 2.421.851 4.293.891.83.018 1.254.005 1.772-.05 1.258-.136 1.83-.285 3.5-.909.417-.155.841-.297.944-.314.22-.037.632.04.872.163.432.224.796.82.794 1.301-.003.563-.19.904-.738 1.348-1.311 1.06-2.985 1.71-4.983 1.936-.713.08-2.34.092-3.125.022-2.213-.195-3.75-.58-5.153-1.29-1.096-.554-1.932-1.242-2.556-2.102-.153-.212-.284-.39-.29-.397-.006-.006-.107.116-.226.272-.525.688-1.328 1.428-2.113 1.947-1.132.748-2.758 1.32-4.404 1.546-.49.068-2.118.124-2.536.087-2.883-.252-5.087-1.136-6.69-2.684-1.63-1.574-2.33-3.627-2.053-6.027.317-2.76 1.608-4.71 3.871-5.848 1.745-.877 3.485-1.21 6.318-1.211 2.014-.001 3.7.166 6.274.622.636.112 1.187.204 1.224.204.054 0 .096-.206.213-1.029.211-1.489.25-2.002.192-2.599-.067-.694-.155-1.025-.413-1.563-.668-1.388-2.253-2.238-4.798-2.571-.728-.096-2.407-.109-3.137-.025-1.221.14-1.903.32-3.423.898-.89.339-.894.34-1.248.319-.61-.036-1.027-.317-1.294-.872-.11-.229-.129-.323-.129-.63 0-.463.118-.708.53-1.1.925-.88 2.481-1.628 4.052-1.95 1.005-.206 1.5-.249 2.825-.247 1.37.004 2.247.08 3.466.311 2.026.383 3.564 1.058 4.724 2.073.345.301.864.894 1.086 1.24.068.106.138.192.156.192.017 0 .13-.127.25-.282 1.756-2.276 4.715-3.564 8.182-3.562zm-29.465 0c.587 0 1.045.211 1.375.633.348.421.522.913.522 1.475 0 .527-.156.984-.467 1.37-.312.37-.76.554-1.347.554-2.474 0-4.162.615-5.537 1.844-1.328 1.205-2.034 2.806-2.061 4.803V35.19c0 .756-.243 1.359-.728 1.809-.468.432-1.023.648-1.664.648s-1.187-.207-1.638-.621c-.433-.415-.658-.997-.675-1.746V13.724c0-.756.233-1.35.701-1.782a2.464 2.464 0 011.69-.648 2.25 2.25 0 011.612.648c.45.415.683.98.7 1.692l.002.09v3.315c.458-1.634 1.374-2.996 2.748-4.085 1.393-1.106 2.825-1.66 4.767-1.66zm-24.255-7.53c.577 0 1.076.188 1.498.562.436.389.655.91.655 1.565l-.001 5.403h5.177c.734 0 1.337.56 1.406 1.276l.006.136c0 .734-.56 1.337-1.276 1.405l-.136.007-5.177-.001V27.89l.002.372c.008 1.216.059 2.19.151 2.923.12.824.23 1.64.535 2.068.322.446.686.774 1.093.894.356.12.836.188 1.439.203l.266.003h2.442l.146.01a1.648 1.648 0 01.098 3.259l-.147.019-.072.003v.003h-3.383l-.355-.005c-2.104-.065-3.766-.716-4.987-1.951-1.235-1.234-1.878-3.287-1.93-6.16l-.003-.38-.001-15.034h-3.294c-.734 0-1.337-.56-1.406-1.275l-.006-.136c0-.734.56-1.337 1.276-1.405l.136-.007h3.391l.373-5.403c0-.685.203-1.215.609-1.589.405-.358.897-.537 1.474-.537zm35.365 21.548c-1.752.101-2.466.258-3.518.772-.539.264-.91.55-1.205.927-.422.54-.677 1.079-.855 1.803-.129.527-.142 1.908-.022 2.352.202.75.442 1.174.981 1.735.74.769 1.713 1.282 2.92 1.538.619.132.6.13 1.635.114.75-.011 1.03-.033 1.338-.103 1.303-.295 2.464-.962 3.308-1.899.769-.854 1.4-2.133 1.747-3.543.195-.795.52-3.007.448-3.053-.028-.018-.2-.047-.381-.063-.182-.017-.7-.08-1.15-.14-2.68-.355-4.324-.492-5.246-.44zm16.342-10.615c-.954.18-1.76.506-2.472 1.001-1.314.915-2.221 2.295-2.726 4.147-.199.727-.252 1.006-.428 2.26l-.164 1.156.219.025c.66.076 2.149.261 3.013.376.544.072 1.212.149 1.483.17.787.064 2.196.059 2.967-.011 1.086-.099 1.753-.272 2.573-.669.682-.33 1.079-.667 1.454-1.236.552-.838.767-1.632.762-2.81-.004-.84-.073-1.19-.355-1.793-.63-1.347-2.108-2.312-4.047-2.641-.484-.082-1.783-.068-2.279.025zM176.608 0c.837 0 1.512.231 2.027.693.515.447.772 1.044.772 1.789 0 .73-.257 1.326-.772 1.788-.515.448-1.198.671-2.051.671-.853 0-1.537-.223-2.051-.67-.515-.463-.773-1.059-.773-1.79 0-.73.258-1.326.773-1.788.53-.462 1.222-.693 2.075-.693z"/><path fill="#9D0FB0" d="M25.219 17.252l.097.052 8.391 4.73a1.881 1.881 0 001.847 0l8.32-4.68a2.824 2.824 0 012.866 4.865l-.096.056-4.805 2.703a.941.941 0 000 1.64l12.969 7.311a1.88 1.88 0 001.849 0l8.019-4.52a2.824 2.824 0 012.868 4.863l-.095.056-4.512 2.544a.941.941 0 000 1.639l4.538 2.559a2.824 2.824 0 01-2.676 4.972l-.098-.053-8.044-4.535a1.887 1.887 0 00-1.85 0l-13.11 7.391a.94.94 0 00-.001 1.64l5.418 3.054a2.824 2.824 0 01-2.676 4.972l-.097-.053-8.924-5.03a1.882 1.882 0 00-1.85 0l-9 5.073a2.823 2.823 0 01-2.868-4.863l.095-.056 5.494-3.097a.94.94 0 000-1.64L14.292 41.52a1.883 1.883 0 00-1.848 0l-7.651 4.305a2.824 2.824 0 01-2.866-4.865l.096-.056 4.138-2.329a.94.94 0 000-1.64l-4.13-2.328a2.823 2.823 0 012.674-4.973l.098.053 7.645 4.309a1.881 1.881 0 001.847 0l13.124-7.384a.942.942 0 00.001-1.64l-4.877-2.75a2.823 2.823 0 012.676-4.971zm8.485 12.304L20.58 36.94a.941.941 0 00-.001 1.64l12.989 7.322a1.885 1.885 0 001.849 0l13.111-7.392a.941.941 0 000-1.639l-12.975-7.314a1.88 1.88 0 00-1.848-.001z"/></g></svg>