<svg xmlns="http://www.w3.org/2000/svg" viewBox="0 0 269 84"><g fill="none"><path fill="#fff" d="M195.935 55.476c1.764 0 3.322.434 4.673 1.303 1.35.868 2.398 2.088 3.142 3.66.745 1.571 1.117 3.404 1.117 5.5 0 2.067-.372 3.88-1.117 5.438-.744 1.557-1.792 2.764-3.142 3.618-1.351.855-2.909 1.282-4.673 1.282-1.682 0-3.123-.372-4.322-1.116-1.2-.745-2.102-1.82-2.709-3.226v10.752l-.006.146a.915.915 0 01-.221.557c-.152.165-.365.248-.641.248-.579 0-.868-.317-.868-.951V56.469l.006-.134a.888.888 0 01.221-.528c.152-.165.365-.248.641-.248s.49.083.641.248c.152.165.227.386.227.662v3.267l.135-.29c.602-1.238 1.46-2.196 2.574-2.874 1.2-.73 2.64-1.096 4.322-1.096zm64.429 0c2.536 0 4.535.827 5.996 2.481 1.461 1.655 2.192 3.915 2.192 6.782 0 .497-.097.855-.29 1.076-.193.22-.537.33-1.033.33h-14.226l.008.382c.086 2.517.765 4.471 2.039 5.863 1.337 1.461 3.219 2.192 5.645 2.192 1.323 0 2.419-.18 3.287-.538a13.212 13.212 0 002.544-1.406c.579-.386.95-.579 1.116-.579.193 0 .359.076.496.228a.744.744 0 01.207.516c0 .276-.103.545-.31.807-.207.262-.572.558-1.096.889-1.985 1.185-4.039 1.778-6.162 1.778-3.005 0-5.369-.923-7.092-2.77-1.723-1.848-2.584-4.384-2.584-7.61 0-2.067.386-3.887 1.158-5.458.771-1.572 1.86-2.792 3.266-3.66 1.407-.869 3.02-1.303 4.839-1.303zm-20.925 0c1.02 0 1.999.138 2.936.414.937.275 1.764.661 2.481 1.158.524.386.903.723 1.137 1.013.235.29.352.586.352.889a.748.748 0 01-.207.517.649.649 0 01-.496.227c-.22 0-.579-.206-1.075-.62a11.61 11.61 0 00-2.254-1.365c-.786-.358-1.771-.537-2.957-.537-1.544 0-2.791.365-3.742 1.096-.952.73-1.427 1.688-1.427 2.874 0 .716.152 1.302.455 1.757.303.455.82.848 1.55 1.179.731.33 1.772.648 3.123.95 1.902.47 3.363.945 4.383 1.428 1.02.482 1.744 1.061 2.171 1.736.428.676.641 1.537.641 2.585 0 1.654-.682 2.984-2.047 3.99-1.364 1.007-3.177 1.51-5.438 1.51-1.075 0-2.15-.158-3.225-.475a11.113 11.113 0 01-2.895-1.303c-.551-.358-.924-.655-1.117-.89a1.228 1.228 0 01-.29-.806c0-.193.07-.365.208-.516a.647.647 0 01.496-.228c.138 0 .324.076.558.228.235.151.393.255.476.31.8.579 1.633 1.054 2.502 1.426.868.373 1.964.559 3.287.559 1.792 0 3.17-.331 4.136-.993.965-.661 1.447-1.599 1.447-2.812 0-.717-.172-1.31-.517-1.778-.344-.469-.91-.875-1.695-1.22-.786-.345-1.91-.682-3.37-1.013-2.427-.552-4.164-1.255-5.211-2.11-1.048-.854-1.572-1.984-1.572-3.39 0-1.71.669-3.102 2.006-4.177 1.337-1.075 3.067-1.613 5.19-1.613zm-79.524 0c2.537 0 4.536.827 5.997 2.481 1.46 1.655 2.191 3.915 2.191 6.782 0 .497-.096.855-.289 1.076-.193.22-.538.33-1.034.33h-14.226l.009.382c.085 2.517.765 4.471 2.038 5.863 1.338 1.461 3.22 2.192 5.645 2.192 1.324 0 2.42-.18 3.288-.538a13.234 13.234 0 002.543-1.406c.58-.386.951-.579 1.117-.579.193 0 .358.076.496.228a.744.744 0 01.207.516c0 .276-.104.545-.31.807-.207.262-.573.558-1.096.889-1.985 1.185-4.04 1.778-6.162 1.778-3.005 0-5.37-.923-7.092-2.77-1.723-1.848-2.585-4.384-2.585-7.61 0-2.067.386-3.887 1.158-5.458.772-1.572 1.861-2.792 3.267-3.66 1.406-.869 3.019-1.303 4.838-1.303zm-57.523 0c2.537 0 4.535.827 5.997 2.481 1.46 1.655 2.191 3.915 2.191 6.782 0 .497-.096.855-.29 1.076-.192.22-.537.33-1.033.33H95.031l.009.382c.085 2.517.765 4.471 2.038 5.863 1.337 1.461 3.219 2.192 5.645 2.192 1.323 0 2.42-.18 3.288-.538a13.234 13.234 0 002.543-1.406c.579-.386.951-.579 1.116-.579.193 0 .359.076.497.228a.743.743 0 01.206.516c0 .276-.103.545-.31.807-.206.262-.572.558-1.096.889-1.985 1.185-4.038 1.778-6.161 1.778-3.005 0-5.37-.923-7.092-2.77-1.724-1.848-2.585-4.384-2.585-7.61 0-2.067.386-3.887 1.158-5.458.772-1.572 1.86-2.792 3.267-3.66 1.406-.869 3.019-1.303 4.838-1.303zm38.335-5.955c.248 0 .455.083.62.248.166.166.249.4.249.703v5.5h5.5l.112.01a.655.655 0 01.384.218.8.8 0 01.207.558.714.714 0 01-.186.496c-.124.138-.297.207-.517.207h-5.5v11.62l.003.326c.04 1.705.405 2.933 1.093 3.686.73.8 1.867 1.268 3.411 1.406l1.117.083.134.016c.517.083.776.353.776.81 0 .607-.4.87-1.2.786l-1.075-.082-.34-.028c-1.894-.181-3.298-.8-4.209-1.854-.965-1.116-1.447-2.846-1.447-5.19V57.461h-3.433l-.112-.008a.67.67 0 01-.384-.199.674.674 0 01-.207-.496c0-.22.07-.406.207-.558a.647.647 0 01.496-.228h3.433v-5.5l.007-.146a.886.886 0 01.24-.557.846.846 0 01.621-.248zm84.155 6.038c.276 0 .49.083.641.248.152.165.228.386.228.662v18.774l-.007.146c-.02.234-.094.42-.22.557-.152.166-.366.248-.642.248-.275 0-.49-.082-.64-.248-.152-.165-.228-.4-.228-.703V56.47l.006-.134a.888.888 0 01.221-.528c.152-.165.366-.248.641-.248zm-5.293 0l.135.004c.259.015.441.076.547.182.124.124.186.31.186.558 0 .469-.289.745-.868.827l-1.24.124-.331.038c-1.85.24-3.255.972-4.219 2.196-1.02 1.295-1.53 2.784-1.53 4.466v11.29l-.006.145c-.021.234-.095.42-.221.557-.152.166-.365.248-.641.248s-.49-.082-.641-.248c-.152-.165-.227-.4-.227-.703V56.51l.004-.131c.038-.547.326-.82.864-.82.248 0 .455.083.62.248.166.165.248.4.248.703v2.978l.131-.25c1.21-2.213 3.317-3.425 6.32-3.638l.58-.041h.289zm-36.846 0l.135.004c.258.015.44.076.547.182.124.124.186.31.186.558 0 .469-.29.745-.868.827l-1.24.124-.332.038c-1.848.24-3.254.972-4.218 2.196-1.02 1.295-1.53 2.784-1.53 4.466v11.29l-.006.145c-.021.234-.095.42-.221.557-.152.166-.366.248-.641.248-.276 0-.49-.082-.641-.248-.152-.165-.228-.4-.228-.703V56.51l.005-.131c.038-.547.326-.82.864-.82.248 0 .455.083.62.248.165.165.248.4.248.703v2.978l.13-.25c1.21-2.213 3.317-3.425 6.321-3.638l.58-.041h.289zm-57.937-.083c4.852 0 7.278 2.537 7.278 7.61v12.157l-.004.131c-.039.547-.327.82-.864.82-.276 0-.49-.082-.641-.248-.152-.165-.228-.4-.228-.703V63.251l-.004-.349c-.044-1.945-.47-3.38-1.278-4.304-.854-.978-2.233-1.468-4.135-1.468-2.123 0-3.825.655-5.107 1.965s-1.923 3.053-1.923 5.23v10.918l-.006.146c-.021.234-.095.42-.222.557-.151.166-.365.248-.64.248-.276 0-.49-.082-.642-.248-.151-.165-.227-.4-.227-.703V56.51l.004-.131c.039-.547.327-.82.864-.82.276 0 .483.083.62.248.139.165.208.4.208.703v3.06l.134-.279a6.52 6.52 0 012.616-2.76c1.226-.703 2.626-1.055 4.197-1.055zm71.129 1.696c-2.261 0-3.998.751-5.211 2.253-1.213 1.503-1.82 3.647-1.82 6.431 0 2.784.607 4.935 1.82 6.451 1.213 1.517 2.936 2.275 5.17 2.275 2.232 0 3.97-.752 5.21-2.254 1.24-1.503 1.86-3.632 1.86-6.39 0-2.756-.62-4.907-1.86-6.45-1.24-1.544-2.964-2.316-5.17-2.316zm64.429-.083c-2.095 0-3.784.655-5.066 1.964-1.282 1.31-2.033 3.136-2.254 5.48h13.854c-.055-2.399-.648-4.24-1.778-5.521-1.13-1.282-2.716-1.923-4.756-1.923zm-100.449 0c-2.095 0-3.783.655-5.065 1.964-1.282 1.31-2.034 3.136-2.254 5.48h13.853c-.055-2.399-.648-4.24-1.778-5.521-1.13-1.282-2.715-1.923-4.756-1.923zm-57.523 0c-2.095 0-3.784.655-5.066 1.964-1.282 1.31-2.033 3.136-2.253 5.48h13.853c-.055-2.399-.648-4.24-1.778-5.521-1.13-1.282-2.716-1.923-4.756-1.923zm122.49-9.511c.441 0 .807.137 1.096.413.29.276.434.648.434 1.117 0 .44-.151.8-.455 1.075a1.542 1.542 0 01-1.075.413c-.413 0-.772-.137-1.075-.413-.303-.276-.455-.634-.455-1.075 0-.469.145-.841.434-1.117.29-.276.655-.413 1.096-.413zM95.851 4.135a2.4 2.4 0 011.645.616c.48.428.72 1.002.72 1.72l-.001 5.934 5.687.001c.809 0 1.473.62 1.544 1.41l.006.14a1.55 1.55 0 01-1.41 1.545l-.14.007h-5.687v15.128l.002.376c.008 1.35.064 2.432.166 3.244.13.905.252 1.8.587 2.271.354.49.754.85 1.201.982.392.132.918.206 1.58.223l.292.003h2.683a1.81 1.81 0 01.252 3.594l-.153.019-.072.003v.003h-3.715l-.353-.005c-2.329-.065-4.167-.78-5.515-2.144-1.361-1.36-2.068-3.626-2.12-6.798l-.004-.385V15.507h-3.618a1.55 1.55 0 01-1.545-1.409l-.006-.141c0-.809.62-1.473 1.41-1.545l.14-.006h3.726l.41-5.935c0-.753.223-1.335.668-1.745.446-.394.986-.59 1.62-.59zm26.644 8.271c.644 0 1.148.232 1.51.695a2.47 2.47 0 01.574 1.62c0 .58-.172 1.081-.514 1.506-.342.405-.835.608-1.479.608-2.717 0-4.572.675-6.082 2.026-1.459 1.323-2.234 3.082-2.264 5.275v14.519c0 .83-.266 1.493-.8 1.987a2.601 2.601 0 01-1.827.712c-.705 0-1.305-.228-1.8-.682-.476-.457-.723-1.096-.741-1.918l-.001-.1V15.077c0-.83.257-1.483.77-1.958a2.709 2.709 0 011.857-.712c.686 0 1.276.237 1.771.712.493.456.75 1.075.77 1.859l.001.099v3.64c.503-1.794 1.51-3.29 3.02-4.486 1.529-1.216 3.102-1.824 5.235-1.824zm32.366 0c2.693 0 5.196.694 7.062 1.954 1.48 1 2.683 2.54 3.168 4.057.28.872.322 1.194.324 2.46.002.787-.02 1.318-.063 1.565-.436 2.487-1.477 4.21-3.282 5.438-1.453.987-3.277 1.565-5.663 1.793-1.2.115-3.397.104-4.82-.024-1.208-.108-2.691-.299-3.324-.427a40.08 40.08 0 00-.954-.175l-.335-.057c-.555-.095-1.061-.177-1.069-.169-.006.007-.093.558-.192 1.226-.157 1.065-.18 1.331-.183 2.182v.352c.002.565.024.726.111 1.064.33 1.283 1.058 2.142 2.378 2.806 1.298.653 2.66.936 4.716.98.91.019 1.377.005 1.947-.056 1.38-.15 2.01-.312 3.845-.998.457-.17.923-.326 1.036-.345.242-.041.694.043.957.18.475.245.875.899.872 1.428-.003.619-.208.993-.81 1.48-1.44 1.165-3.279 1.88-5.474 2.127-.782.088-2.57.101-3.432.025-2.431-.215-4.119-.637-5.661-1.418-1.204-.609-2.122-1.364-2.807-2.31-.169-.231-.312-.427-.319-.434-.006-.007-.118.127-.248.298-.577.756-1.459 1.569-2.32 2.138-1.245.823-3.031 1.45-4.838 1.7-.54.074-2.328.135-2.786.095-3.168-.277-5.588-1.249-7.348-2.949-1.791-1.73-2.56-3.984-2.257-6.62.35-3.033 1.767-5.175 4.253-6.424 1.916-.963 3.827-1.33 6.94-1.33 2.212-.001 4.065.183 6.891.683.7.123 1.304.224 1.345.225.06 0 .106-.227.234-1.13.232-1.636.274-2.2.21-2.856-.073-.763-.169-1.126-.453-1.717-.734-1.525-2.474-2.458-5.27-2.824-.8-.105-2.645-.12-3.446-.028-1.341.155-2.09.351-3.76.987-.977.372-.982.373-1.371.35-.67-.04-1.128-.348-1.421-.958-.12-.25-.142-.354-.142-.692 0-.508.13-.778.583-1.208 1.016-.966 2.725-1.789 4.45-2.142 1.104-.226 1.648-.273 3.103-.271 1.506.004 2.469.089 3.807.342 2.226.42 3.916 1.162 5.19 2.277.378.33.948.982 1.193 1.362.074.116.151.21.17.21.02 0 .144-.139.275-.31 1.93-2.499 5.18-3.914 8.988-3.912zM185.394 0v.003l.071.003a1.809 1.809 0 01-.099 3.612h-2.683c-.8 0-1.425.076-1.872.227-.447.132-.847.491-1.201.982-.335.47-.457 1.366-.587 2.27-.102.813-.158 1.895-.166 3.245l-.002.375v1.689h4.653a1.55 1.55 0 010 3.102l-4.653-.001v23.244c0 .728-.22 1.322-.66 1.782l-.14.134c-.513.458-1.123.687-1.827.687s-1.304-.22-1.8-.658c-.45-.416-.695-.99-.736-1.72l-.006-.225V15.507h-4.135a1.55 1.55 0 110-3.1l4.135-.001V9.332c0-3.375.708-5.769 2.124-7.183C177.157.785 178.996.07 181.325.005l.352-.005h3.716zm6.944 12.406c.686 0 1.276.237 1.771.712.467.432.722 1.01.765 1.736l.006.222v23.579c0 .83-.266 1.493-.8 1.987a2.601 2.601 0 01-1.827.712c-.705 0-1.305-.228-1.8-.682-.45-.432-.695-1.027-.736-1.785l-.006-.232v-23.58c0-.83.257-1.482.77-1.957a2.709 2.709 0 011.857-.712zM202.677 0a2.52 2.52 0 011.77.686c.468.417.723.974.765 1.674l.007.214V25.18l12.995-11.722c.42-.356.868-.535 1.345-.535.611 0 1.145.235 1.603.705.477.47.716.995.716 1.577 0 .468-.181.898-.543 1.292l-.144.145-10.39 9.158 11.363 11.778c.42.432.63.92.63 1.465 0 .601-.248 1.137-.744 1.606-.477.47-1.03.705-1.66.705a2.2 2.2 0 01-1.572-.64l-.146-.15-13.453-14.088v12.275c0 .8-.267 1.44-.8 1.916a2.656 2.656 0 01-1.828.687c-.704 0-1.304-.22-1.8-.658-.45-.416-.695-.99-.736-1.72l-.006-.225V2.574c0-.8.257-1.43.771-1.888A2.774 2.774 0 01202.677 0zm-67.98 27.805c-1.924.11-2.709.282-3.864.847-.592.29-1 .604-1.324 1.018-.464.595-.744 1.185-.939 1.981-.142.58-.156 2.096-.025 2.584.222.823.486 1.289 1.078 1.906.812.844 1.882 1.408 3.209 1.69.678.143.658.142 1.794.124.824-.012 1.133-.036 1.47-.113 1.432-.324 2.707-1.057 3.633-2.085.845-.939 1.538-2.344 1.92-3.893.215-.873.572-3.303.493-3.354-.032-.02-.22-.05-.42-.07-.2-.018-.768-.086-1.264-.152-2.943-.39-4.749-.541-5.76-.483zm17.951-11.66c-1.048.196-1.934.555-2.715 1.1-1.444 1.004-2.44 2.52-2.995 4.554-.218.798-.276 1.105-.47 2.482l-.18 1.27.24.028c.725.083 2.36.287 3.31.413l.204.026.418.052c.416.05.808.093 1.008.11.777.062 2.109.063 2.984.007l.274-.021c1.193-.108 1.926-.299 2.827-.734.75-.363 1.185-.733 1.597-1.358.606-.921.843-1.792.837-3.087-.005-.923-.08-1.306-.39-1.969-.692-1.48-2.316-2.54-4.446-2.902-.531-.09-1.958-.074-2.503.028zM192.322 0c.919 0 1.661.254 2.227.761.565.492.848 1.147.848 1.965 0 .802-.283 1.457-.848 1.965-.566.491-1.317.737-2.254.737-.936 0-1.687-.246-2.253-.737-.565-.508-.848-1.163-.848-1.965s.283-1.457.848-1.965c.583-.507 1.343-.761 2.28-.761z"/><path fill="#0060E0" d="M37.506 3.444l.12.065 33.177 18.906c2.092 1.191 2.078 4.191.02 5.378l-.112.061-7.841 4.124a1.033 1.033 0 00-.03 1.814l8.074 4.583c2.067 1.173 2.091 4.124.087 5.343l-.111.065-8.174 4.542a1.034 1.034 0 00.021 1.819l7.974 4.194.113.062c2.02 1.165 2.07 4.08.09 5.312l-.11.066-33.178 18.906-.12.065a3.104 3.104 0 01-2.833-.001l-.12-.066L1.564 59.855l-.11-.066c-1.982-1.236-1.927-4.156.1-5.316l.113-.062 8.194-4.273a1.034 1.034 0 00.028-1.818l-8.232-4.621c-2.067-1.16-2.112-4.1-.125-5.336l.11-.065 8.01-4.554a1.034 1.034 0 00-.032-1.816l-7.954-4.146c-2.137-1.115-2.231-4.12-.213-5.378l.11-.066L34.553 3.51a3.103 3.103 0 012.953-.066zm16.083 49.955l-15.898 8.836c-.9.5-1.987.52-2.901.06l-.124-.067-15.675-8.8a2.071 2.071 0 00-1.969-.03l-5.77 3.01a1.034 1.034 0 00-.034 1.815l23.85 13.61a2.067 2.067 0 002.048.002l24.056-13.708a1.034 1.034 0 00-.031-1.813l-5.585-2.938a2.067 2.067 0 00-1.967.023zM35.165 26.375L11.071 40.072a1.034 1.034 0 00.005 1.8l24.108 13.534c.626.35 1.39.352 2.017.004l24.24-13.472a1.034 1.034 0 00.008-1.803l-24.241-13.76a2.067 2.067 0 00-2.043 0zm-.098-16.017L11.218 23.97a1.033 1.033 0 00.035 1.814l5.468 2.853c.623.324 1.368.31 1.978-.036l15.953-9.07a3.103 3.103 0 012.939-.067l.125.067 16.096 9.137c.614.348 1.362.36 1.986.03l5.346-2.819a1.032 1.032 0 00.03-1.812l-24.058-13.71a2.074 2.074 0 00-2.049.001z"/></g></svg>