<svg viewBox="0 0 128 128" xmlns="http://www.w3.org/2000/svg" xmlns:xlink="http://www.w3.org/1999/xlink"><style>@media (prefers-color-scheme:dark){path{fill:#fff}}</style><defs><path id="path-1" d="M0 0h128v128H0z"/></defs><g id="TraefikEnterprise-icon-black" stroke="none" stroke-width="1" fill="none" fill-rule="evenodd"><mask id="mask-2" fill="#fff"><use xlink:href="#path-1"/></mask><path d="M66.044 5.329l.186.1 51.346 29.26c3.237 1.844 3.216 6.486.032 8.323l-.174.095-12.136 6.382a1.6 1.6 0 00-.045 2.808l12.495 7.092c3.2 1.816 3.236 6.383.135 8.27l-.173.1-12.65 7.03a1.6 1.6 0 00.033 2.814l12.341 6.49.174.096c3.127 1.804 3.203 6.314.139 8.222l-.17.101-51.347 29.26-.186.1a4.8 4.8 0 01-4.383-.001l-.186-.101L10.42 92.632l-.17-.102c-3.069-1.913-2.983-6.432.155-8.227l.174-.096 12.68-6.614a1.6 1.6 0 00.044-2.813l-12.74-7.152c-3.199-1.796-3.268-6.346-.193-8.257l.17-.101 12.397-7.048a1.6 1.6 0 00-.05-2.81L10.58 42.994c-3.308-1.726-3.453-6.376-.33-8.323l.17-.102L61.476 5.43a4.8 4.8 0 014.57-.102zm24.891 77.31L66.332 96.316a4.8 4.8 0 01-4.49.092l-.192-.102-24.26-13.619a3.2 3.2 0 00-3.046-.046l-8.93 4.657a1.6 1.6 0 00-.053 2.809l36.91 21.065a3.2 3.2 0 003.17 0l37.23-21.213a1.6 1.6 0 00-.048-2.807l-8.643-4.546a3.2 3.2 0 00-3.045.035zM62.422 40.82L25.134 62.015a1.6 1.6 0 00.008 2.786l37.31 20.944a3.2 3.2 0 003.12.007l37.515-20.85a1.6 1.6 0 00.013-2.79L65.583 40.817a3.2 3.2 0 00-3.16.001zm-.152-24.79L25.362 37.095a1.6 1.6 0 00.053 2.808l8.463 4.415a3.2 3.2 0 003.062-.056l24.688-14.035a4.8 4.8 0 014.548-.106l.193.105 24.912 14.14a3.2 3.2 0 003.072.048l8.275-4.363a1.6 1.6 0 00.046-2.806L65.44 16.03a3.2 3.2 0 00-3.17.001z" id="Shape" fill="#000" fill-rule="nonzero" mask="url(#mask-2)"/></g></svg>