<svg xmlns="http://www.w3.org/2000/svg" viewBox="0 0 185 70"><g fill="none"><path fill="#fff" d="M83.092 46.23c1.477 0 2.781.362 3.912 1.086 1.131.723 2.008 1.74 2.632 3.05.623 1.31.934 2.837.934 4.583 0 1.723-.311 3.234-.934 4.532-.624 1.298-1.5 2.303-2.632 3.015-1.13.712-2.435 1.068-3.912 1.068-1.408 0-2.613-.31-3.617-.93-1.004-.62-1.76-1.516-2.268-2.688v8.96l-.008.145a.746.746 0 01-.182.44c-.127.139-.306.207-.537.207-.485 0-.727-.264-.727-.792V47.057l.008-.132c.02-.17.08-.309.182-.42.127-.137.306-.206.537-.206.23 0 .41.069.537.207.127.138.19.321.19.551v2.723l.132-.282c.503-1.012 1.215-1.797 2.136-2.355 1.004-.608 2.21-.913 3.617-.913zm33.235 0c1.478 0 2.782.356 3.912 1.068 1.131.713 2.008 1.724 2.632 3.033.623 1.31.934 2.826.934 4.549 0 1.746-.311 3.274-.934 4.583-.624 1.31-1.5 2.32-2.632 3.033-1.13.712-2.434 1.068-3.912 1.068-1.477 0-2.78-.356-3.912-1.068-1.13-.712-2.008-1.723-2.63-3.033-.624-1.31-.935-2.837-.935-4.583 0-1.723.311-3.24.934-4.549.623-1.31 1.5-2.32 2.631-3.033 1.131-.712 2.435-1.068 3.912-1.068zm13.64-4.962c.208 0 .381.069.52.206.138.138.208.334.208.586v4.584h4.604l.094.007a.55.55 0 01.322.182.668.668 0 01.173.465c0 .161-.052.3-.156.414a.553.553 0 01-.433.172h-4.604v9.684l.004.306c.038 1.403.342 2.415.913 3.037.612.666 1.564 1.057 2.856 1.171l.935.07.132.016c.42.073.63.297.63.673 0 .505-.335.723-1.004.654l-.9-.069-.32-.026c-1.568-.155-2.731-.67-3.489-1.542-.807-.93-1.211-2.372-1.211-4.324v-9.65h-2.874l-.094-.007a.56.56 0 01-.321-.165.561.561 0 01-.173-.414c0-.183.057-.338.173-.465a.544.544 0 01.415-.19h2.874V42.06l.005-.121a.74.74 0 01.202-.465.711.711 0 01.52-.206zm-26.587-2.413c.207 0 .38.075.519.224a.81.81 0 01.208.569v23.055l-.009.133a.76.76 0 01-.2.435.673.673 0 01-.518.224c-.231 0-.41-.069-.537-.206-.127-.138-.19-.334-.19-.586V39.648l.007-.145a.744.744 0 01.183-.44c.127-.139.306-.208.537-.208zm-7.34 7.444c.231 0 .41.069.537.207.127.138.19.321.19.551v15.646l-.007.145a.753.753 0 01-.183.44c-.127.138-.306.207-.537.207-.23 0-.41-.069-.536-.206-.127-.138-.19-.334-.19-.586V47.057l.007-.132a.726.726 0 01.183-.42c.127-.137.305-.206.536-.206zm20.287 1.344c-1.846 0-3.294.638-4.344 1.913-1.05 1.275-1.576 3.05-1.576 5.324 0 2.343.514 4.141 1.541 5.393 1.027 1.252 2.475 1.878 4.345 1.878 1.915 0 3.387-.626 4.414-1.878 1.027-1.252 1.54-3.05 1.54-5.393 0-2.274-.525-4.05-1.575-5.324-1.05-1.275-2.498-1.913-4.345-1.913zm-33.235 0c-1.892 0-3.346.626-4.362 1.878-1.015 1.252-1.523 3.039-1.523 5.359s.508 4.112 1.523 5.376c1.016 1.264 2.458 1.895 4.328 1.895s3.323-.626 4.362-1.878c1.038-1.252 1.558-3.027 1.558-5.324 0-2.298-.52-4.09-1.558-5.376-1.039-1.287-2.481-1.93-4.328-1.93zm12.948-7.995c.37 0 .675.115.918.345.242.23.363.54.363.93 0 .368-.127.666-.38.896a1.3 1.3 0 01-.9.345c-.347 0-.647-.115-.9-.345-.255-.23-.382-.528-.382-.896 0-.39.121-.7.364-.93.242-.23.548-.345.917-.345zM78.187 3.446c.531 0 .99.171 1.377.514.402.356.603.834.603 1.433l-.001 4.945h4.767c.67 0 1.22.509 1.286 1.16l.006.133a1.29 1.29 0 01-1.16 1.285l-.132.007h-4.767l.001 12.607.001.374c.009 1.097.055 1.978.14 2.643.108.754.21 1.5.49 1.892.297.409.632.709 1.006.819.328.11.769.171 1.323.185l.245.003h2.245l.143.01a1.507 1.507 0 01.094 2.981l-.134.018-.08.004v.003h-3.11l-.345-.006c-1.926-.063-3.448-.658-4.568-1.785-1.133-1.127-1.725-3.002-1.774-5.624l-.004-.362V12.922l-3.035.001a1.29 1.29 0 01-1.285-1.16l-.007-.133c0-.67.509-1.22 1.16-1.286l.132-.007h3.125l.343-4.945c0-.628.187-1.113.56-1.455.373-.328.825-.492 1.355-.492zm22.306 6.892c.54 0 .96.193 1.264.58.32.385.48.836.48 1.35 0 .483-.143.9-.43 1.254-.286.338-.699.507-1.238.507-2.275 0-3.828.563-5.091 1.689-1.222 1.102-1.87 2.568-1.896 4.396v12.098c0 .692-.223 1.244-.67 1.656-.43.396-.94.594-1.53.594-.59 0-1.091-.19-1.506-.569-.398-.38-.605-.913-.62-1.598l-.001-19.732c0-.692.215-1.236.645-1.631a2.272 2.272 0 011.554-.594c.574 0 1.068.198 1.483.594.413.38.628.896.644 1.549l.001.082v3.034c.421-1.496 1.264-2.742 2.528-3.739 1.28-1.013 2.597-1.52 4.383-1.52zm27.095 0c2.255 0 4.35.579 5.913 1.629 1.239.833 2.245 2.116 2.652 3.38.234.727.269.995.271 2.05.001.656-.016 1.1-.053 1.304-.365 2.073-1.236 3.51-2.748 4.532-1.216.823-2.743 1.305-4.74 1.495-1.006.095-2.845.086-4.036-.02-1.01-.09-2.252-.25-2.782-.357a39.014 39.014 0 00-.758-.138l-.313-.054c-.213-.036-.417-.07-.578-.095l-.233-.036-.08-.01h-.012c-.006.005-.078.465-.16 1.021-.133.888-.151 1.11-.154 1.818v.315c.002.454.021.588.093.865.276 1.07.885 1.786 1.99 2.339 1.087.544 2.227.78 3.949.816.762.016 1.152.005 1.63-.046 1.155-.124 1.682-.26 3.218-.832.383-.142.773-.272.868-.288.203-.034.58.037.801.15.398.205.732.75.73 1.19-.002.516-.174.828-.678 1.234-1.206.97-2.745 1.566-4.582 1.772-.656.074-2.152.085-2.874.021-2.035-.179-3.448-.53-4.74-1.181-1.007-.507-1.775-1.137-2.35-1.925-.14-.193-.26-.356-.266-.362a1.874 1.874 0 00-.208.248c-.483.63-1.221 1.308-1.943 1.782-1.041.686-2.536 1.208-4.05 1.416-.45.062-1.948.113-2.332.08-2.651-.231-4.677-1.04-6.151-2.457-1.5-1.442-2.143-3.32-1.89-5.517.293-2.528 1.48-4.313 3.561-5.354 1.604-.802 3.204-1.108 5.81-1.108 1.852-.001 3.403.152 5.77.569.584.103 1.09.187 1.125.187.05 0 .089-.188.196-.942.194-1.363.23-1.833.176-2.379-.061-.635-.142-.938-.38-1.43-.614-1.272-2.071-2.05-4.411-2.354-.67-.088-2.214-.1-2.885-.023-1.123.128-1.75.292-3.148.822-.818.31-.822.311-1.148.292-.56-.033-.944-.29-1.19-.798-.1-.21-.118-.296-.118-.578 0-.423.109-.647.488-1.006.85-.805 2.28-1.49 3.725-1.785.925-.188 1.38-.228 2.598-.226 1.26.003 2.067.074 3.187.285 1.863.35 3.278.968 4.345 1.897.316.276.794.819.998 1.135.063.097.127.176.143.176.017 0 .12-.116.23-.258 1.616-2.083 4.337-3.262 7.524-3.26zM153.149 0v.003l.08.003a1.507 1.507 0 01.04 2.999l-.143.01h-2.246c-.67 0-1.193.063-1.567.189-.374.11-.71.41-1.006.818-.28.393-.382 1.139-.49 1.893-.085.664-.131 1.545-.14 2.642l-.001.374-.001 1.407h3.901a1.293 1.293 0 010 2.585h-3.901v19.37c0 .6-.18 1.091-.542 1.473l-.127.123c-.43.382-.94.573-1.53.573-.59 0-1.092-.183-1.506-.549-.373-.343-.578-.815-.616-1.415l-.006-.205v-19.37h-3.468a1.293 1.293 0 010-2.585h3.468V7.776c0-2.812.593-4.807 1.778-5.985 1.12-1.128 2.642-1.723 4.568-1.785l.344-.006h3.111zm5.814 10.338a2.07 2.07 0 011.482.594c.388.356.6.832.64 1.428l.006.203v19.65c0 .691-.223 1.243-.67 1.655-.43.396-.94.594-1.53.594-.59 0-1.091-.19-1.506-.569-.373-.356-.578-.845-.615-1.468l-.007-.213V12.563c0-.692.216-1.236.646-1.631a2.269 2.269 0 011.554-.594zM167.618 0c.574 0 1.068.19 1.482.572.388.343.6.802.64 1.377l.006.196v18.838l10.88-9.768c.35-.297.726-.446 1.126-.446.51 0 .958.196 1.341.587.4.392.6.83.6 1.315 0 .384-.147.737-.44 1.06l-.136.138-8.698 7.631 9.513 9.815c.352.36.527.767.527 1.221 0 .501-.207.947-.623 1.339-.4.39-.862.587-1.39.587-.497 0-.93-.174-1.301-.52l-.136-.138-11.263-11.74v10.229c0 .667-.223 1.2-.67 1.596-.43.382-.94.573-1.53.573-.59 0-1.092-.183-1.506-.549-.373-.343-.578-.815-.615-1.415l-.007-.205V2.145c0-.667.216-1.192.646-1.573A2.32 2.32 0 01167.618 0zm-56.91 23.17c-1.61.093-2.267.236-3.234.707-.496.241-.838.503-1.109.848-.388.496-.622.988-.786 1.651-.118.483-.13 1.746-.02 2.153.186.686.406 1.074.902 1.588.68.704 1.575 1.173 2.686 1.408.568.12.551.12 1.502.105.69-.011.949-.03 1.23-.095 1.2-.27 2.267-.88 3.043-1.738.707-.782 1.287-1.953 1.606-3.244.18-.727.48-2.753.413-2.794-.026-.017-.184-.043-.351-.058a41.07 41.07 0 01-1.058-.128c-2.464-.325-3.976-.45-4.823-.402zm15.029-9.716c-.878.164-1.62.463-2.274.916-1.208.838-2.042 2.1-2.507 3.795-.182.666-.23.922-.393 2.07l-.15 1.058.2.023c.299.034.78.092 1.287.155l.51.063.492.063.482.063.17.022.35.043.291.034.261.029c.12.013.221.023.292.028a20.94 20.94 0 002.472.008l.256-.019c.999-.09 1.613-.249 2.367-.612.627-.302.992-.61 1.337-1.132.508-.767.705-1.493.7-2.572-.003-.769-.067-1.089-.326-1.64-.579-1.234-1.938-2.117-3.722-2.419-.445-.075-1.639-.062-2.095.024zM158.949 0c.77 0 1.391.212 1.865.634.473.41.71.956.71 1.638 0 .668-.237 1.214-.71 1.637-.474.41-1.103.614-1.887.614s-1.413-.205-1.886-.614c-.474-.423-.71-.969-.71-1.637 0-.669.236-1.215.71-1.638.488-.422 1.124-.634 1.908-.634z"/><path fill="#DB7D11" d="M3.008 13.442l.102-.003 50.333-.516c1.988-.02 3.247 2.094 2.312 3.811l-.053.094L30.005 59.9a2.604 2.604 0 01-3.559.903 2.58 2.58 0 01-.957-3.454l.05-.088 21.77-36.488a1.72 1.72 0 00-.605-2.362 1.75 1.75 0 00-.902-.241l-42.638.437a2.592 2.592 0 01-2.62-2.457l-.004-.1a2.59 2.59 0 012.468-2.608zm8.218 14.181l.101-.003 16.731-.24c1.992-.028 3.26 2.087 2.325 3.808l-.053.094-8.612 14.477a2.602 2.602 0 01-3.557.907 2.578 2.578 0 01-.962-3.452l.05-.089 5.466-9.187a.86.86 0 00-.757-1.3l-10.556.15a2.59 2.59 0 01-2.63-2.445l-.003-.102a2.589 2.589 0 012.457-2.618z"/></g></svg>