<svg viewBox="0 0 128 128" xmlns="http://www.w3.org/2000/svg" xmlns:xlink="http://www.w3.org/1999/xlink"><style>@media (prefers-color-scheme:dark){path{fill:#fff}}</style><defs><path id="path-1" d="M0 0h128v128H0z"/></defs><g id="TraefikPilot-icon-black" stroke="none" stroke-width="1" fill="none" fill-rule="evenodd"><mask id="mask-2" fill="#fff"><use xlink:href="#path-1"/></mask><path d="M17.362 24.963l.189-.006L110.598 24c3.677-.038 6.004 3.888 4.275 7.078l-.098.173-47.506 79.993a4.8 4.8 0 01-8.347-4.738l.093-.164L99.257 38.58a3.2 3.2 0 00-2.785-4.834l-78.823.81a4.8 4.8 0 01-4.843-4.561l-.006-.189a4.8 4.8 0 014.562-4.843zm15.192 26.34l.188-.007 30.93-.445c3.682-.053 6.024 3.875 4.297 7.072l-.098.174-15.92 26.886a4.8 4.8 0 01-8.354-4.727l.093-.164 10.103-17.063a1.6 1.6 0 00-1.4-2.415l-19.513.28a4.8 4.8 0 01-4.862-4.541l-.007-.189a4.8 4.8 0 014.543-4.862z" id="Shape" fill="#000" fill-rule="nonzero" mask="url(#mask-2)"/></g></svg>