<svg viewBox="0 0 218 226" xmlns="http://www.w3.org/2000/svg"><path d="M111.297 185.911a2.44 2.44 0 011.716.666c.453.403.7.944.742 1.622l.006.208v21.914l12.599-11.363c.407-.346.842-.519 1.304-.519.592 0 1.11.228 1.554.683.463.455.694.965.694 1.53 0 .453-.175.87-.526 1.251l-.14.142-10.074 8.877 11.017 11.418c.407.419.611.892.611 1.42 0 .583-.24 1.102-.722 1.557-.462.455-.999.683-1.61.683-.582 0-1.09-.207-1.523-.62l-.141-.145-13.043-13.657v11.899c0 .776-.259 1.395-.775 1.858a2.577 2.577 0 01-1.772.665c-.683 0-1.265-.213-1.745-.638-.436-.403-.674-.96-.714-1.668l-.006-.217v-35.07c0-.777.25-1.387.748-1.83a2.68 2.68 0 011.8-.666zm-10.023 12.027c.664 0 1.236.23 1.716.69.453.418.7.98.742 1.683l.006.215v22.857c0 .805-.258 1.448-.775 1.927-.499.46-1.09.69-1.772.69-.683 0-1.265-.22-1.745-.661-.436-.419-.674-.995-.714-1.73l-.006-.226v-22.857c0-.805.25-1.438.748-1.898a2.624 2.624 0 011.8-.69zM94.54 185.91v.003l.07.003a1.754 1.754 0 01-.097 3.501l-2.6.001c-.777 0-1.382.073-1.815.22-.434.127-.822.476-1.165.951-.325.457-.443 1.325-.57 2.202-.098.78-.151 1.818-.16 3.113l-.002.396v1.636h4.51a1.503 1.503 0 010 3.008h-4.51v22.532c0 .706-.213 1.282-.64 1.728l-.135.13a2.577 2.577 0 01-1.772.665c-.683 0-1.264-.213-1.744-.638-.437-.403-.675-.96-.714-1.668l-.006-.217v-22.533h-4.01a1.503 1.503 0 010-3.006h4.01v-2.98c0-3.272.686-5.593 2.059-6.963 1.303-1.32 3.08-2.013 5.33-2.078l.358-.006h3.603zm-29.6 12.028c2.61 0 5.038.673 6.847 1.894 1.435.97 2.6 2.462 3.071 3.933.27.845.312 1.157.314 2.384.002.764-.019 1.279-.06 1.517-.424 2.412-1.433 4.083-3.183 5.272-1.408.957-3.177 1.518-5.49 1.739-1.164.111-3.294.1-4.674-.023-1.17-.106-2.608-.29-3.222-.415-.513-.104-2.271-.403-2.286-.388-.006.007-.09.54-.185 1.188-.153 1.033-.175 1.29-.178 2.115v.342c.002.548.023.703.107 1.03.32 1.245 1.026 2.078 2.305 2.721 1.26.633 2.579.907 4.573.95.883.018 1.335.005 1.887-.054 1.339-.145 1.949-.303 3.728-.968.443-.165.895-.316 1.004-.334.235-.04.673.042.928.174.461.238.848.872.846 1.385-.003.6-.202.963-.786 1.435-1.396 1.129-3.178 1.821-5.306 2.061-.759.086-2.491.098-3.328.024-2.357-.208-3.993-.617-5.488-1.374-1.167-.59-2.057-1.322-2.722-2.238a40.63 40.63 0 00-.308-.422c-.006-.007-.115.123-.242.289-.559.733-1.414 1.52-2.25 2.073-1.205.797-2.937 1.405-4.69 1.647-.522.072-2.255.132-2.7.093-3.07-.27-5.417-1.21-7.124-2.859-1.736-1.676-2.481-3.862-2.187-6.417.338-2.94 1.713-5.017 4.123-6.228 1.857-.934 3.71-1.29 6.728-1.29 2.144 0 3.94.178 6.681.662.678.12 1.264.218 1.304.218.057 0 .102-.219.227-1.095.225-1.586.265-2.133.204-2.768-.072-.74-.165-1.092-.44-1.665-.711-1.478-2.4-2.383-5.11-2.738-.774-.101-2.563-.115-3.34-.026-1.3.15-2.027.34-3.646.956-.947.361-.951.362-1.329.34-.65-.039-1.093-.338-1.377-.929-.117-.243-.138-.344-.138-.671 0-.493.126-.754.565-1.171.985-.937 2.642-1.734 4.314-2.076 1.071-.22 1.598-.266 3.009-.263 1.46.004 2.393.086 3.69.33 2.158.409 3.797 1.128 5.032 2.208.367.321.92.952 1.157 1.32.072.113.147.205.165.205.02 0 .139-.135.267-.3 1.87-2.423 5.021-3.795 8.713-3.793zm72-12.027c.321 0 .59.122.804.365.185.208.29.464.316.769l.007.156v37.51l-.007.156c-.026.304-.131.56-.316.769a1.03 1.03 0 01-.805.364c-.358 0-.635-.112-.832-.336-.169-.193-.265-.454-.29-.783l-.006-.17V187.2l.007-.17c.024-.33.12-.591.289-.783.197-.225.474-.337.832-.337zm17.387 12.027c6.092 0 9.19 3.215 9.296 9.645l.002.341v16.625l-.006.17c-.025.328-.125.588-.3.779-.204.223-.492.335-.863.335s-.668-.121-.89-.363a1.26 1.26 0 01-.328-.765l-.007-.156v-3.905l-.168.337c-.807 1.548-1.93 2.756-3.367 3.624-1.54.93-3.295 1.395-5.262 1.395-1.707 0-3.266-.353-4.677-1.06-1.41-.707-2.533-1.664-3.368-2.873a7.286 7.286 0 01-1.309-4.045c-.037-2.046.464-3.626 1.503-4.742 1.04-1.116 2.784-1.915 5.234-2.399 2.343-.462 5.587-.704 9.73-.724l.57-.001h1.114v-2.343l-.003-.373c-.048-2.45-.576-4.25-1.584-5.402-1.058-1.208-2.719-1.813-4.983-1.813-1.782 0-3.368.233-4.76.698-1.392.465-2.497.995-3.313 1.59-.149.111-.455.325-.919.641s-.844.474-1.141.474a.958.958 0 01-.696-.306 1.025 1.025 0 01-.306-.754c0-.706.65-1.45 1.948-2.231a16.375 16.375 0 014.26-1.785 17.79 17.79 0 014.593-.614zm-120.765 0c.624 0 1.112.224 1.463.673.371.45.557.973.557 1.572 0 .561-.166 1.047-.498 1.459-.332.393-.81.59-1.434.59-2.634 0-4.433.654-5.896 1.963-1.415 1.283-2.167 2.988-2.195 5.114v14.074c0 .805-.259 1.448-.776 1.927-.498.46-1.089.69-1.772.69s-1.264-.22-1.744-.661c-.461-.443-.701-1.062-.719-1.86v-22.953c0-.805.248-1.438.747-1.898a2.624 2.624 0 011.8-.69c.664 0 1.236.23 1.716.69.478.442.727 1.042.746 1.802l.002.096v3.529c.487-1.74 1.463-3.19 2.927-4.35 1.483-1.178 3.008-1.767 5.076-1.767zM7.73 189.92c.615 0 1.147.2 1.595.597.465.415.698.97.698 1.668l-.001 5.752h5.514c.784 0 1.428.601 1.497 1.367l.006.137c0 .784-.6 1.428-1.366 1.497l-.137.007h-5.514l.001 14.665.001.397c.01 1.294.063 2.331.162 3.112.126.878.243 1.745.568 2.202.344.475.732.824 1.165.952.38.128.89.2 1.532.216l.283.003h2.601a1.754 1.754 0 01.245 3.484l-.149.018-.07.003V226H12.76l-.36-.005c-2.248-.066-4.025-.759-5.329-2.078-1.317-1.316-2.003-3.508-2.055-6.575l-.004-.388v-16.01H1.503c-.784 0-1.428-.6-1.497-1.366L0 199.441c0-.784.6-1.428 1.366-1.497l.137-.006h3.612l.398-5.753c0-.73.216-1.294.648-1.693.431-.381.955-.572 1.57-.572zm162.087-4.009c.375 0 .665.112.871.336.177.191.278.452.303.78l.006.17v16.494l.16-.344c.82-1.697 1.994-3.017 3.522-3.961 1.63-1.006 3.587-1.51 5.873-1.51 2.398 0 4.515.578 6.351 1.734 1.836 1.155 3.26 2.777 4.271 4.864 1.012 2.087 1.518 4.529 1.518 7.324 0 2.833-.506 5.321-1.518 7.465-1.011 2.143-2.435 3.802-4.271 4.976-1.836 1.174-3.953 1.761-6.351 1.761-2.286 0-4.243-.503-5.873-1.51-1.528-.943-2.702-2.28-3.522-4.01l-.16-.35v4.416l-.004.156c-.046.754-.438 1.13-1.176 1.13-.375 0-.665-.112-.871-.335-.177-.192-.278-.452-.303-.78l-.006-.17v-37.35l.004-.155c.046-.754.438-1.13 1.176-1.13zm38.622 12.027c1.379 0 2.702.186 3.97.558 1.267.372 2.385.892 3.354 1.562.709.52 1.221.976 1.538 1.367.317.39.475.79.475 1.2 0 .26-.093.492-.28.697a.876.876 0 01-.67.306c-.298 0-.783-.279-1.454-.836a15.638 15.638 0 00-3.047-1.841c-1.063-.484-2.395-.726-3.998-.726-2.087 0-3.774.493-5.06 1.479-1.286.985-1.93 2.278-1.93 3.877 0 .967.206 1.757.616 2.371.41.614 1.109 1.144 2.097 1.59.987.446 2.395.874 4.221 1.283 2.572.633 4.548 1.274 5.927 1.925 1.38.65 2.358 1.432 2.935 2.343.578.911.867 2.074.867 3.487 0 2.232-.923 4.026-2.768 5.384-1.845 1.357-4.296 2.036-7.352 2.036a15.38 15.38 0 01-4.362-.642c-1.453-.427-2.758-1.013-3.913-1.757-.746-.483-1.25-.883-1.51-1.2a1.66 1.66 0 01-.392-1.087c0-.26.094-.493.28-.698a.876.876 0 01.671-.307c.186 0 .438.103.755.307.317.205.531.344.643.419a17.552 17.552 0 003.383 1.924c1.174.503 2.655.754 4.445.754 2.423 0 4.286-.447 5.591-1.34 1.305-.892 1.957-2.157 1.957-3.793 0-.967-.233-1.767-.699-2.399-.466-.632-1.23-1.18-2.292-1.646-1.063-.465-2.582-.92-4.557-1.367-3.28-.743-5.629-1.692-7.045-2.845-1.417-1.153-2.125-2.678-2.125-4.575 0-2.306.904-4.184 2.712-5.634 1.808-1.45 4.147-2.176 7.017-2.176zm-28.081 2.004c-3.025 0-5.359 1.026-7.002 3.077-1.643 2.051-2.464 4.942-2.464 8.671 0 3.767.821 6.676 2.464 8.728 1.643 2.05 3.996 3.076 7.058 3.076 2.987 0 5.32-1.044 7.001-3.132 1.68-2.089 2.52-5.017 2.52-8.783 0-3.693-.84-6.555-2.52-8.588-1.68-2.032-4.033-3.049-7.057-3.049zM161.37 212.22h-1.589c-3.654.014-6.458.171-8.414.472-2.05.314-3.483.851-4.303 1.61-.82.76-1.23 1.88-1.23 3.36 0 1.704.634 3.102 1.9 4.194 1.267 1.092 2.87 1.638 4.807 1.638 1.676 0 3.185-.398 4.526-1.194 1.341-.796 2.394-1.897 3.158-3.304.704-1.3 1.084-2.756 1.138-4.37l.007-.407v-2zm-115.978.645c-1.865.107-2.626.274-3.746.822-.574.28-.97.585-1.284.987-.45.576-.72 1.149-.91 1.92-.137.562-.151 2.032-.024 2.505.216.798.471 1.25 1.046 1.847.786.819 1.823 1.365 3.11 1.638.658.14.638.139 1.74.122.799-.013 1.098-.036 1.425-.11 1.387-.315 2.624-1.025 3.522-2.022.82-.91 1.491-2.272 1.86-3.774.07-.282.155-.732.234-1.208l.059-.36c.131-.84.23-1.654.186-1.682a1.401 1.401 0 00-.312-.058l-.095-.01a5.872 5.872 0 01-.177-.019l-.255-.03a60.464 60.464 0 01-.305-.036l-.488-.063c-2.854-.378-4.604-.525-5.586-.469zm17.404-11.303c-1.016.19-1.875.538-2.633 1.066-1.4.974-2.366 2.443-2.903 4.415-.212.774-.268 1.072-.456 2.407l-.174 1.231.233.027c.703.08 2.288.278 3.208.4l.198.025.405.05c.404.05.784.091.977.107.837.068 2.338.061 3.16-.013 1.155-.105 1.866-.29 2.74-.712.726-.351 1.148-.71 1.548-1.317.588-.892.817-1.737.811-2.992-.004-.894-.078-1.266-.378-1.908-.67-1.435-2.245-2.463-4.31-2.813-.515-.088-1.898-.072-2.426.027zm38.462-15.65c.89 0 1.61.245 2.159.737.548.477.822 1.111.822 1.905 0 .778-.274 1.413-.822 1.905-.549.476-1.277.714-2.185.714-.908 0-1.636-.238-2.184-.714-.549-.492-.823-1.127-.823-1.905s.274-1.413.823-1.905c.565-.492 1.302-.738 2.21-.738zM85.483 1.027a8.116 8.116 0 017.907 0l68.616 38.33a4.414 4.414 0 003.144.446c1.499-.346 2.735-.52 3.715-.52 7.179 0 13.052 4.647 13.052 10.444 0 5.797-5.874 10.443-13.052 10.443-1.045 0-2.362-.197-3.958-.59a4.415 4.415 0 00-3.201.43l-98.157 54.734a1.662 1.662 0 00-.842 1.195l-.02.263c0 .68.37 1.307.968 1.64l63.26 35.34a4.414 4.414 0 004.302 0l23.439-13.094a1.866 1.866 0 000-3.268l-28.418-15.876c-2.678-1.496-3.625-4.86-2.115-7.514a5.541 5.541 0 012.115-2.096l28.903-16.145c.361-.202.605-.56.657-.926l.015-.215c0-5.797 5.874-10.443 13.052-10.443s13.052 4.646 13.052 10.443c0 3.563-2.218 6.691-5.595 8.573l-.347.187c-2.049 1.066-4.493 1.684-7.11 1.684-1.083 0-2.446-.212-4.096-.632a4.415 4.415 0 00-3.24.423l-18.3 10.221a1.866 1.866 0 000 3.268l28.42 15.875c2.678 1.495 3.625 4.86 2.115 7.513a5.541 5.541 0 01-2.115 2.097l-38.629 21.58a8.116 8.116 0 01-7.908 0L56.576 126.55a4.415 4.415 0 00-3.16-.442c-1.525.358-2.782.538-3.78.538-7.178 0-13.052-4.647-13.052-10.444 0-5.797 5.874-10.443 13.052-10.443 1.029 0 2.324.191 3.894.57a4.414 4.414 0 003.186-.433l98.3-54.819c.429-.238.718-.662.78-1.103l.017-.247c0-.719-.39-1.382-1.022-1.734L91.586 12.685a4.414 4.414 0 00-4.301 0l-23.43 13.088a1.866 1.866 0 000 3.268L92.279 44.92c2.678 1.496 3.625 4.86 2.116 7.514a5.541 5.541 0 01-2.115 2.096L63.385 70.672c-.374.21-.628.58-.68.962l-.017.221c0 5.797-5.874 10.443-13.052 10.443-3.365 0-6.443-1.02-8.764-2.702l-.305-.229c-2.453-1.894-3.983-4.553-3.983-7.512 0-5.797 5.874-10.443 13.052-10.443 1.075 0 2.427.208 4.065.621a4.415 4.415 0 003.231-.425l18.35-10.25a1.866 1.866 0 000-3.267l-28.42-15.876c-2.679-1.496-3.626-4.86-2.116-7.514a5.541 5.541 0 012.115-2.097z"/></svg>