<svg viewBox="0 0 128 128" xmlns="http://www.w3.org/2000/svg" xmlns:xlink="http://www.w3.org/1999/xlink"><style>@media (prefers-color-scheme:dark){path{fill:#fff}}</style><defs><path id="path-1" d="M0 0h128v128H0z"/></defs><g id="TraefikProxy-icon-black" stroke="none" stroke-width="1" fill="none" fill-rule="evenodd"><mask id="mask-2" fill="#fff"><use xlink:href="#path-1"/></mask><g id="Group" mask="url(#mask-2)" fill="#000" fill-rule="nonzero"><path d="M55.5 0c5.034 0 9.509 3.554 9.509 7.93 0 4.377-4.26 7.931-9.509 7.931-.6 0-1.384-.098-2.351-.295a3.167 3.167 0 00-2.199.351L16.858 35.322a1.587 1.587 0 00.008 2.762l36.957 20.763c.96.539 2.13.541 3.091.006l37.157-20.669a1.587 1.587 0 00.013-2.766L82.49 28.832a3.167 3.167 0 00-3.102-.015L67.15 35.611a1.08 1.08 0 00-.55.827l-.005.117c0 4.377-4.261 7.93-9.51 7.93-5.247 0-9.508-3.553-9.508-7.93s4.26-7.93 9.509-7.93c.195 0 .419.01.672.031l.4.04.445.055a3.167 3.167 0 001.964-.369l18.1-10.045a4.751 4.751 0 014.462-.08l.19.103 25.275 14.358c3.168 1.8 3.205 6.328.133 8.198l-.17.1-16.908 9.404a1.587 1.587 0 00.032 2.79l16.747 8.815c3.324 1.75 3.404 6.485.14 8.346L57.71 99.376a4.751 4.751 0 01-4.71-.002L2.429 70.49c-3.266-1.866-3.177-6.61.159-8.351L19.517 53.3a1.587 1.587 0 00.043-2.79L2.427 40.886C-.74 39.106-.81 34.595 2.235 32.7l.17-.101L44.482 8.65a3.172 3.172 0 001.423-1.705l.054-.169C47.436 2.376 50.797 0 55.5 0zm23.48 58.42L58.2 70.378l-.19.104a4.73 4.73 0 01-4.495-.084L32.802 58.71a3.153 3.153 0 00-3.012-.048L17.85 64.91a1.59 1.59 0 00-.052 2.785l36.477 20.887a3.153 3.153 0 003.134 0L94.2 67.549a1.59 1.59 0 00-.046-2.783l-12.13-6.4a3.153 3.153 0 00-3.046.056z" transform="translate(9 14)" id="Shape"/></g></g></svg>