<svg viewBox="0 0 128 128" xmlns="http://www.w3.org/2000/svg" xmlns:xlink="http://www.w3.org/1999/xlink"><style>@media (prefers-color-scheme:dark){path{fill:#fff}}</style><defs><path id="path-1" d="M0 0h128v128H0z"/></defs><g id="TraefikMesh-icon-black" stroke="none" stroke-width="1" fill="none" fill-rule="evenodd"><mask id="mask-2" fill="#fff"><use xlink:href="#path-1"/></mask><path d="M48.28 29.33l.166.089 14.264 8.04a3.2 3.2 0 003.14.001l14.145-7.958a4.8 4.8 0 014.87 8.27l-.162.096-8.168 4.596a1.6 1.6 0 00-.001 2.788L98.581 57.68a3.2 3.2 0 003.143 0l13.633-7.684a4.8 4.8 0 014.876 8.267l-.162.095-7.67 4.324a1.6 1.6 0 000 2.788l7.714 4.349a4.8 4.8 0 01-4.549 8.452l-.165-.09-13.677-7.709a3.2 3.2 0 00-3.143 0l-22.29 12.565a1.6 1.6 0 000 2.788l9.21 5.191a4.8 4.8 0 01-4.548 8.452l-.166-.09-15.17-8.552a3.2 3.2 0 00-3.144 0l-15.3 8.627a4.8 4.8 0 01-4.877-8.267l.162-.096 9.34-5.265a1.6 1.6 0 000-2.788L29.703 70.584a3.2 3.2 0 00-3.14-.001l-13.01 7.321a4.8 4.8 0 01-4.87-8.27l.162-.096 7.034-3.959a1.6 1.6 0 000-2.788L8.86 58.833a4.8 4.8 0 014.548-8.452l.166.089 12.996 7.326a3.2 3.2 0 003.14.001l22.312-12.554a1.6 1.6 0 000-2.788l-8.29-4.674a4.8 4.8 0 014.549-8.452zm14.425 20.916L40.395 62.8a1.6 1.6 0 00-.002 2.789l22.08 12.447a3.2 3.2 0 003.143 0l22.29-12.565a1.6 1.6 0 000-2.788l-22.06-12.436a3.2 3.2 0 00-3.14 0z" id="Shape" fill="#000" fill-rule="nonzero" mask="url(#mask-2)"/></g></svg>