<svg xmlns="http://www.w3.org/2000/svg" viewBox="0 0 172 65"><g fill="none"><path fill="#fff" d="M78.204 43.028c1.365 0 2.57.336 3.616 1.008 1.045.672 1.856 1.616 2.432 2.832.576 1.216.864 2.635.864 4.256 0 1.6-.288 3.003-.864 4.208-.576 1.205-1.387 2.139-2.432 2.8s-2.25.992-3.616.992c-1.301 0-2.416-.288-3.344-.864-.928-.576-1.627-1.408-2.096-2.496v8.32l-.007.134a.701.701 0 01-.169.41c-.117.128-.283.192-.496.192-.448 0-.672-.245-.672-.736V43.796l.007-.123a.677.677 0 01.169-.389c.117-.128.283-.192.496-.192.213 0 .379.064.496.192.117.128.176.299.176.512v2.528l.122-.261c.465-.94 1.123-1.669 1.974-2.187.928-.565 2.043-.848 3.344-.848zm53.728.032c.235 0 .416.128.544.384l6.176 13.92.064-.16 6.08-13.664.051-.105c.129-.229.314-.343.557-.343.17 0 .32.059.448.176a.6.6 0 01.192.464c0 .064-.021.16-.064.288l-9.184 20.352-.059.102a.59.59 0 01-.517.282.618.618 0 01-.432-.16.537.537 0 01-.176-.416l.064-.256 2.304-5.056-6.72-14.848-.028-.09a.607.607 0 01.188-.678.766.766 0 01.512-.192zm-26.144-.032c1.365 0 2.57.33 3.616.992 1.045.661 1.856 1.6 2.432 2.816.576 1.216.864 2.624.864 4.224 0 1.621-.288 3.04-.864 4.256-.576 1.216-1.387 2.155-2.432 2.816s-2.25.992-3.616.992c-1.365 0-2.57-.33-3.616-.992-1.045-.661-1.856-1.6-2.432-2.816-.576-1.216-.864-2.635-.864-4.256 0-1.6.288-3.008.864-4.224.576-1.216 1.387-2.155 2.432-2.816s2.25-.992 3.616-.992zm-9.28.064l.121.004c.191.013.327.06.407.14.096.096.144.24.144.432 0 .363-.224.576-.672.64l-.96.096-.287.033c-1.415.19-2.493.755-3.233 1.695-.79 1.003-1.184 2.155-1.184 3.456v8.736l-.007.134a.701.701 0 01-.169.41c-.117.128-.283.192-.496.192-.213 0-.379-.064-.496-.192-.117-.128-.176-.31-.176-.544V43.828l.005-.118c.034-.412.256-.618.667-.618.192 0 .352.064.48.192s.192.31.192.544v2.304l.119-.225c.938-1.692 2.563-2.62 4.873-2.783l.448-.032h.224zm32.064 0c.17 0 .325.064.464.192s.208.288.208.48-.075.373-.224.544l-5.696 6.656 5.856 6.816.08.104c.096.14.144.286.144.44 0 .192-.064.352-.192.48s-.277.192-.448.192c-.192 0-.373-.096-.544-.288l-5.76-6.752-5.728 6.752-.096.088c-.16.133-.32.2-.48.2-.17 0-.32-.064-.448-.192s-.192-.288-.192-.48.075-.373.224-.544l5.856-6.816-5.664-6.656-.08-.104a.765.765 0 01-.144-.44c0-.192.064-.352.192-.48s.277-.192.448-.192c.192 0 .373.096.544.288l5.568 6.592 5.568-6.592.086-.088a.673.673 0 01.458-.2zm-22.784 1.248c-1.707 0-3.045.592-4.016 1.776-.97 1.184-1.456 2.832-1.456 4.944 0 2.176.475 3.845 1.424 5.008.95 1.163 2.288 1.744 4.016 1.744 1.77 0 3.13-.581 4.08-1.744.95-1.163 1.424-2.832 1.424-5.008 0-2.112-.485-3.76-1.456-4.944-.97-1.184-2.31-1.776-4.016-1.776zm-27.584 0c-1.75 0-3.093.581-4.032 1.744-.939 1.163-1.408 2.821-1.408 4.976s.47 3.819 1.408 4.992c.939 1.173 2.272 1.76 4 1.76 1.728 0 3.072-.581 4.032-1.744s1.44-2.81 1.44-4.944c0-2.133-.48-3.797-1.44-4.992-.96-1.195-2.293-1.792-4-1.792zM156.334 0c.53 0 .986.177 1.37.531.353.315.55.735.589 1.26l.007.201v17.491l10.056-9.069c.278-.236.573-.372.884-.406l.157-.008c.473 0 .886.182 1.24.545.37.364.554.77.554 1.221 0 .356-.135.685-.407.985l-.124.127-8.04 7.086 8.793 9.114c.325.335.487.713.487 1.134 0 .465-.192.88-.576 1.243-.37.363-.797.545-1.285.545a1.7 1.7 0 01-1.203-.482l-.126-.129-10.41-10.901v9.498c0 .55-.163 1.003-.489 1.355l-.13.128a2.057 2.057 0 01-1.414.531c-.545 0-1.01-.17-1.392-.51-.34-.314-.53-.745-.568-1.293l-.007-.211V1.992c0-.62.199-1.107.597-1.46A2.133 2.133 0 01156.333 0zm-8 9.6c.53 0 .986.184 1.37.55.353.327.55.763.589 1.307l.007.209V29.91c0 .643-.206 1.156-.619 1.538a2.016 2.016 0 01-1.414.551c-.545 0-1.01-.176-1.392-.528-.34-.326-.53-.774-.568-1.342l-.007-.219V11.666c0-.643.199-1.148.597-1.515a2.094 2.094 0 011.436-.551zM142.958 0v.003l.076.003a1.4 1.4 0 01-.096 2.794h-2.076c-.62 0-1.103.058-1.448.175-.346.102-.656.38-.93.76-.26.365-.353 1.057-.454 1.757-.078.617-.12 1.435-.129 2.454l-.001.347-.001 1.306 3.601.001a1.2 1.2 0 110 2.4l-3.6-.001v17.987c0 .55-.163 1.003-.489 1.355l-.13.128a2.057 2.057 0 01-1.414.531c-.545 0-1.01-.17-1.392-.51-.34-.314-.53-.745-.568-1.293l-.007-.211V11.999l-3.2.001a1.2 1.2 0 110-2.4l3.199-.001.001-2.378c0-2.611.548-4.464 1.643-5.558C136.574.62 137.976.067 139.747.006l.337-.006h2.875zm-23.625 9.6c2.084 0 4.02.537 5.465 1.512 1.145.774 2.075 1.965 2.451 3.14.216.674.249.923.25 1.902.002.61-.014 1.021-.048 1.211-.338 1.926-1.143 3.26-2.54 4.209-1.124.764-2.535 1.21-4.382 1.387-.929.09-2.629.08-3.73-.018-.935-.084-2.082-.232-2.572-.331-.41-.083-1.813-.321-1.824-.31-.005.005-.072.432-.149.948-.122.825-.14 1.03-.142 1.689-.002.67.007.787.086 1.096.256.993.819 1.657 1.84 2.171 1.005.505 2.058.724 3.65.758.704.015 1.065.004 1.506-.043 1.069-.115 1.556-.242 2.975-.772.354-.132.715-.253.802-.267.188-.032.537.033.741.139.368.19.677.696.675 1.105-.002.479-.161.769-.627 1.146-1.115.901-2.537 1.454-4.236 1.645-.605.068-1.988.078-2.656.02-1.881-.167-3.187-.494-4.38-1.097-.932-.471-1.642-1.056-2.173-1.787-.13-.18-.24-.332-.246-.337a1.677 1.677 0 00-.192.23c-.447.586-1.13 1.215-1.796 1.655-.963.637-2.345 1.122-3.743 1.315-.417.058-1.801.105-2.156.074-2.451-.215-4.324-.966-5.686-2.282-1.386-1.338-1.98-3.083-1.746-5.122.27-2.347 1.367-4.005 3.29-4.972 1.483-.745 2.962-1.028 5.371-1.029 1.711 0 3.145.142 5.333.529.54.095 1.009.174 1.04.174.046 0 .082-.175.181-.875.18-1.266.212-1.702.163-2.21-.057-.59-.131-.87-.351-1.328-.568-1.18-1.915-1.902-4.078-2.185-.619-.082-2.046-.093-2.666-.022-1.038.12-1.618.272-2.91.764-.756.288-.76.289-1.061.27-.519-.03-.872-.269-1.1-.74-.093-.195-.11-.275-.11-.537 0-.392.101-.6.452-.934.786-.748 2.108-1.384 3.443-1.657.855-.175 1.275-.212 2.402-.21 1.165.003 1.91.068 2.945.264 1.723.326 3.03.9 4.016 1.762.293.256.734.76.923 1.054.058.09.118.163.133.163.015 0 .11-.108.212-.24 1.493-1.934 4.008-3.029 6.955-3.027zm-25.045 0c.498 0 .888.18 1.168.538.296.358.444.776.444 1.254a1.8 1.8 0 01-.397 1.165c-.265.313-.647.47-1.145.47-2.102 0-3.538.523-4.706 1.568-1.123 1.018-1.723 2.37-1.752 4.055v11.26c0 .643-.206 1.156-.619 1.538a2.016 2.016 0 01-1.414.551c-.545 0-1.01-.176-1.392-.528-.369-.353-.56-.848-.574-1.484L83.9 11.666c0-.643.199-1.148.597-1.515a2.094 2.094 0 011.436-.551c.53 0 .987.184 1.37.55.382.353.58.833.596 1.44l.001 2.889.09-.29c.413-1.259 1.162-2.318 2.246-3.178 1.184-.94 2.401-1.411 4.052-1.411zM73.67 3.2c.49 0 .915.159 1.273.477.371.33.557.774.557 1.33L75.499 9.6H79.9a1.2 1.2 0 011.194 1.077l.006.123a1.2 1.2 0 01-1.077 1.194L79.9 12l-4.401-.001.001 11.708.001.347c.008 1.019.05 1.837.129 2.454.1.7.194 1.392.454 1.757.274.38.584.658.93.76.296.1.693.157 1.19.171l.258.004h2.076a1.4 1.4 0 01.228 2.775l-.131.019-.076.003V32h-2.875l-.337-.006c-1.771-.061-3.173-.614-4.204-1.657-1.045-1.044-1.592-2.78-1.64-5.207l-.003-.35L71.499 12H68.7a1.2 1.2 0 01-1.194-1.077L67.5 10.8a1.2 1.2 0 011.077-1.194L68.7 9.6l2.882-.001.318-4.591c0-.583.172-1.033.517-1.351.345-.305.763-.457 1.253-.457zm30.06 18.316c-1.489.085-2.096.218-2.99.656-.458.224-.774.467-1.024.787-.359.46-.576.917-.727 1.533-.11.448-.12 1.621-.019 2 .172.636.376.997.835 1.474.628.654 1.455 1.09 2.482 1.307.525.112.51.11 1.389.097.637-.01.876-.028 1.137-.087 1.108-.252 2.095-.818 2.812-1.614.653-.726 1.19-1.814 1.485-3.012.166-.676.443-2.557.381-2.595a1.414 1.414 0 00-.324-.054 42.157 42.157 0 01-.978-.118c-2.278-.302-3.675-.42-4.458-.374zm13.891-9.023c-.81.152-1.496.43-2.101.85-1.117.778-1.888 1.95-2.317 3.525-.169.618-.214.855-.364 1.921l-.139.983.186.021c.56.064 1.826.222 2.56.32.463.06 1.03.126 1.262.145a18.76 18.76 0 002.521-.01c.923-.084 1.49-.232 2.188-.569.58-.28.916-.567 1.235-1.05.47-.713.653-1.387.648-2.389-.003-.714-.062-1.011-.302-1.524-.535-1.145-1.791-1.965-3.44-2.245-.411-.07-1.515-.057-1.937.022zM148.321 0c.71 0 1.285.196 1.723.59.437.38.656.886.656 1.52 0 .62-.219 1.127-.656 1.52-.438.38-1.02.57-1.744.57-.725 0-1.306-.19-1.744-.57-.437-.393-.656-.9-.656-1.52 0-.621.219-1.128.656-1.52.452-.394 1.04-.59 1.765-.59z"/><path fill="#24A1C1" d="M27.75 7c2.517 0 4.754 1.777 4.754 3.965 0 2.189-2.13 3.966-4.754 3.966-.3 0-.692-.05-1.176-.148a1.584 1.584 0 00-1.099.176L8.43 24.66a.795.795 0 00.004 1.381l18.478 10.381c.48.27 1.065.271 1.546.004l18.579-10.335a.793.793 0 00.006-1.383l-5.797-3.293a1.58 1.58 0 00-1.55-.007l-6.12 3.396a.54.54 0 00-.275.414l-.003.059c0 2.188-2.13 3.965-4.755 3.965-2.624 0-4.754-1.777-4.754-3.965 0-2.189 2.13-3.966 4.754-3.966.098 0 .21.006.336.016l.2.02.223.028c.338.046.683-.019.982-.185l9.05-5.023a2.379 2.379 0 012.231-.04l.095.052 12.637 7.18c1.585.9 1.603 3.163.067 4.098l-.085.05-8.454 4.702a.793.793 0 00.016 1.395l8.373 4.408c1.662.874 1.702 3.242.07 4.172L28.856 56.688a2.38 2.38 0 01-2.356 0L1.215 42.244c-1.634-.933-1.589-3.306.079-4.176l8.464-4.42a.793.793 0 00.022-1.394l-8.566-4.812c-1.585-.89-1.62-3.146-.096-4.093l.084-.05 21.039-11.973a1.59 1.59 0 00.712-.853l.027-.084C23.718 8.188 25.399 7 27.75 7zm11.74 29.21L29.1 42.188l-.095.052a2.365 2.365 0 01-2.248-.042l-10.356-5.843a1.578 1.578 0 00-1.506-.023l-5.97 3.124a.794.794 0 00-.026 1.392L27.138 51.29c.485.278 1.08.279 1.566 0l18.397-10.517a.794.794 0 00-.024-1.392l-6.065-3.2a1.58 1.58 0 00-1.523.028z"/></g></svg>