<svg xmlns="http://www.w3.org/2000/svg" xmlns:xlink="http://www.w3.org/1999/xlink" viewBox="0 0 99 70"><defs><linearGradient id="a" x1="50%" x2="50%" y1="0%" y2="100%"><stop offset="0%" stop-opacity=".053"/><stop offset="100%" stop-opacity=".941"/></linearGradient><linearGradient id="c" x1=".702%" x2="98.733%" y1="50%" y2="50%"><stop offset="0%" stop-color="#FFF" stop-opacity=".639"/><stop offset="100%" stop-color="#FFF"/></linearGradient><linearGradient id="d" x1="50%" x2="50%" y1=".257%" y2="100%"><stop offset="0%" stop-color="#FFF" stop-opacity="0"/><stop offset="100%" stop-color="#FFF" stop-opacity=".4"/></linearGradient><linearGradient id="e" x1="1.358%" x2="100%" y1="50%" y2="50%"><stop offset="0%" stop-color="#FFF" stop-opacity=".7"/><stop offset="100%" stop-color="#FFF" stop-opacity=".9"/></linearGradient><linearGradient id="f" x1="50%" x2="50%" y1=".257%" y2="100%"><stop offset="0%" stop-color="#FFF" stop-opacity="0"/><stop offset="100%" stop-color="#FFF"/></linearGradient><linearGradient id="n" x1="62.212%" x2="62.212%" y1="0%" y2="100%"><stop offset="0%" stop-opacity=".4"/><stop offset="100%"/></linearGradient><linearGradient id="q" x1="12.875%" x2="86.803%" y1="36.505%" y2="60.838%"><stop offset="0%" stop-color="#CC22D8"/><stop offset="100%" stop-color="#9D0FB0"/></linearGradient><filter id="b" width="114.3%" height="124.8%" x="-7.1%" y="-12.4%" filterUnits="objectBoundingBox"><feGaussianBlur in="SourceGraphic" stdDeviation="2.045"/></filter><filter id="h" width="105.8%" height="110%" x="-2.9%" y="-5%" filterUnits="objectBoundingBox"><feGaussianBlur in="SourceAlpha" result="shadowBlurInner1" stdDeviation=".5"/><feOffset dy="4" in="shadowBlurInner1" result="shadowOffsetInner1"/><feComposite in="shadowOffsetInner1" in2="SourceAlpha" k2="-1" k3="1" operator="arithmetic" result="shadowInnerInner1"/><feColorMatrix in="shadowInnerInner1" values="0 0 0 0 0 0 0 0 0 0 0 0 0 0 0 0 0 0 0.5 0"/></filter><filter id="k"><feColorMatrix in="SourceGraphic" values="0 0 0 0 0.615686 0 0 0 0 0.058824 0 0 0 0 0.690196 0 0 0 1.000000 0"/></filter><filter id="o" width="120%" height="132.7%" x="-10%" y="-16.3%" filterUnits="objectBoundingBox"><feGaussianBlur in="SourceGraphic" stdDeviation="1.534"/></filter><radialGradient id="i" cx="48.18%" cy="52.179%" r="29.45%" fx="48.18%" fy="52.179%" gradientTransform="matrix(-.57363 .10715 -.04042 -.65 .78 .81)"><stop offset="0%" stop-color="#FFF"/><stop offset="99.137%" stop-color="#FFF" stop-opacity="0"/><stop offset="100%" stop-color="#CC7613" stop-opacity="0"/></radialGradient><radialGradient id="l" cx="50%" cy="56.122%" r="43.878%" fx="50%" fy="56.122%" gradientTransform="matrix(0 1 -1.04665 0 1.087 .061)"><stop offset="0%" stop-color="#FFF" stop-opacity=".622"/><stop offset="100%" stop-color="#FFF" stop-opacity="0"/></radialGradient><radialGradient id="p" cx="50%" cy="40.204%" r="133.713%" fx="50%" fy="40.204%" gradientTransform="scale(.63156 1) rotate(28.904 .646 .968)"><stop offset="0%" stop-color="#891498"/><stop offset="100%" stop-color="#2F0744"/></radialGradient><ellipse id="m" cx="48.175" cy="25.76" rx="48.175" ry="25.76"/><path id="g" d="M52.3 2.554c-5.354-3.087-13.465-3.423-18.102-.75L3.13 19.723c-4.637 2.674-4.054 7.351 1.3 10.439L34.1 47.27c5.354 3.088 13.465 3.424 18.101.75l31.07-17.917c4.636-2.674 4.054-7.351-1.3-10.439L52.3 2.555z"/></defs><g fill="none" fill-rule="evenodd"><path fill="url(#a)" d="M57.35 15.31c-5.327-3.066-13.4-3.4-18.014-.745l-30.92 17.79C3.8 35.01 4.38 39.654 9.708 42.72l29.53 16.99c5.327 3.065 13.4 3.398 18.014.743l30.92-17.79c4.615-2.654 4.036-7.299-1.293-10.364l-29.53-16.99z" filter="url(#b)" opacity=".3" transform="translate(1.52 .755)"/><path fill="url(#c)" fill-opacity=".5" stroke="url(#d)" stroke-width=".589" d="M58.11 7.255c-5.948-3.43-14.96-3.803-20.112-.832L3.478 26.33c-5.152 2.971-4.505 8.168 1.444 11.599L37.889 56.94c5.949 3.43 14.96 3.804 20.113.833l34.52-19.908c5.152-2.97 4.505-8.168-1.444-11.599L58.111 7.255z" transform="translate(1.52 .755)"/><path fill="url(#e)" stroke="url(#f)" stroke-width=".589" d="M58.11 2.838c-5.948-3.43-14.96-3.803-20.112-.833L3.478 21.913c-5.152 2.971-4.505 8.168 1.444 11.599l32.967 19.012c5.949 3.43 14.96 3.803 20.113.833l34.52-19.908c5.152-2.971 4.505-8.168-1.444-11.599L58.111 2.838z" opacity=".9" transform="translate(1.52 .755)"/><g transform="translate(6.32 3.523)"><mask id="j" fill="#fff"><use xlink:href="#g"/></mask><use fill="#10072A" xlink:href="#g"/><use fill="#000" filter="url(#h)" xlink:href="#g"/><g fill="url(#i)" fill-rule="nonzero" mask="url(#j)" opacity=".166"><path d="M163.777-77.339c.409.21.368.363.249.431L33.463-1.545l10.142 5.843 130.856-75.533c.41.21.368.363.25.431L44.104 4.585l10.663 6.144 130.759-75.477c.41.21.368.363.25.432L55.034 11.152l.143.08c1.337.749 4.817 2.734 10.44 5.958l.13.074 130.845-75.525c.41.21.368.363.25.432L66.246 17.551c2.862 1.64 6.248 3.585 10.16 5.832l130.87-75.54c.41.211.369.364.25.433L76.906 23.671l.29.166c21.244 12.206 57.437 33.044 108.58 62.514a.25.25 0 01.116.279l-.026.061c-.041.073-36.473-20.868-109.293-62.822l-10.818 6.239c21.192 12.175 57.51 33.085 108.954 62.73.12.068.16.22.092.34-.042.072-36.502-20.885-109.38-62.872l-10.488 6.047c21.226 12.195 57.463 33.058 108.71 62.59.12.068.16.22.092.34-.042.072-36.42-20.838-109.136-62.731l-10.626 6.13c21.188 12.172 57.517 33.088 108.986 62.747.12.069.16.221.091.34-.042.073-36.512-20.89-109.411-62.89l-10.488 6.047c21.222 12.193 57.47 33.062 108.742 62.608.12.069.16.221.091.34-.041.073-36.43-20.844-109.167-62.75L22.52 55.062c21.23 12.197 57.46 33.056 108.689 62.577.12.069.16.221.091.34-.042.073-36.413-20.833-109.113-62.718L-54.24 99.374c-.41-.21-.369-.363-.25-.432l76.179-43.968-10.141-5.843-76.473 44.138c-.409-.21-.368-.363-.249-.432l76.222-43.994C7.568 46.839 4.014 44.79.384 42.698l-76.375 44.085c-.409-.21-.368-.363-.249-.432l76.2-43.985a.24.24 0 01.018-.17c-1.164-.649-4.69-2.66-10.574-6.034l-76.46 44.134c-.41-.21-.369-.363-.25-.432l76.212-43.987c-2.856-1.637-6.242-3.581-10.16-5.832l-76.487 44.146c-.409-.21-.368-.363-.249-.432l76.233-44.003-10.676-6.136-76.374 44.084c-.409-.21-.368-.362-.249-.431l76.127-43.939a137494.333 137494.333 0 01-97.876-56.362.248.248 0 01-.091-.34c.04-.07 32.81 18.763 98.312 56.496l10.286-5.93a143641.753 143641.753 0 01-97.823-56.33.25.25 0 01-.091-.341c.04-.07 32.792 18.752 98.258 56.465l10.476-6.04a137384.408 137384.408 0 01-97.577-56.19.248.248 0 01-.091-.34c.04-.069 32.71 18.706 98.014 56.324L-.516 4.625c-21.869-12.576-54.487-31.36-97.855-56.35a.247.247 0 01-.09-.34c.039-.069 32.802 18.76 98.29 56.483l10.476-6.04c-21.867-12.574-54.404-31.31-97.61-56.207a.248.248 0 01-.09-.34c.039-.07 32.72 18.711 98.044 56.341l10.807-6.23a148771.44 148771.44 0 01-97.695-56.259.249.249 0 01-.091-.34c.04-.07 32.75 18.728 98.13 56.39l.028-.01a.978.978 0 01.26.176l10.26 5.91.616.356 130.813-75.504zM22.179 42.995l-10.315 5.95c2.867 1.643 6.254 3.587 10.16 5.831l10.296-5.938-10.141-5.843zm-11.163-6.432l-4.787 2.76-5.577 3.22c1.39.779 4.96 2.817 10.71 6.113l10.317-5.949-10.663-6.144zM33 36.749l-10.505 6.06c2.865 1.642 6.251 3.586 10.159 5.831l10.487-6.048L33 36.749zm-11.165-6.434l-7.633 4.406-2.923 1.685c1.345.752 4.916 2.79 10.713 6.114l10.507-6.06c-3.48-2.004-7.034-4.053-10.664-6.145zm22.126.107l-10.648 6.14c2.857 1.638 6.244 3.582 10.16 5.831l10.629-6.128-10.14-5.843zM.034 30.026l-10.314 5.952L.327 42.09l.048.037 10.262-5.924c0-.038.008-.077.026-.112-1.169-.652-4.713-2.674-10.629-6.065zm32.763-6.037l-10.446 6.028-.15.087a.23.23 0 01-.025.102c1.17.651 4.717 2.675 10.639 6.07l10.646-6.143-10.664-6.144zm21.985.187l-10.504 6.06c2.866 1.643 6.252 3.587 10.158 5.831l10.487-6.048-10.141-5.843zm-43.925-.394L.351 29.842l10.66 6.143h.003l7.908-4.564 2.648-1.526c-1.336-.747-4.907-2.785-10.712-6.113zm-21.48.127l-10.3 5.937 10.142 5.843L-.464 29.74a19797.43 19797.43 0 01-10.16-5.831zm54.24-6.167l-10.553 6.092c1.373.769 4.943 2.806 10.71 6.113l10.507-6.06-10.664-6.145zm22.316-.004l-10.838 6.25c2.859 1.64 6.246 3.583 10.16 5.832l10.82-6.238-10.142-5.844zm-44.116-.285l-10.646 6.142 10.663 6.145 5.063-2.923 5.493-3.171c-.007-.049 0-.1.023-.147-1.167-.65-4.7-2.666-10.596-6.046zm-43.618.03l-10.283 5.933 10.663 6.143 10.296-5.939-10.676-6.135zm21.997.179l-10.488 6.048L-.15 29.553l10.504-6.06C7.489 21.85 4.103 19.906.196 17.662zm54.574-6.356l-10.823 6.247a.223.223 0 01-.02.06c1.171.654 4.73 2.684 10.67 6.09l10.836-6.253-10.663-6.144zm-65.749-.067l-10.475 6.04 10.663 6.143 10.489-6.046-10.677-6.137zm43.62-.03l-10.509 6.06 10.63 6.124.028.023 10.563-6.093c-1.307-.731-4.878-2.769-10.713-6.114zm-21.482.126L.529 17.464l10.141 5.843 10.649-6.14c-2.856-1.637-6.243-3.581-10.16-5.832zM-.019 4.91l-10.614 6.123L.031 17.177l10.626-6.13C7.447 9.203 3.887 7.157-.019 4.91zm43.81-.14l-10.839 6.252 10.662 6.143 10.888-6.283c-1.229-.684-4.799-2.722-10.712-6.111zm-21.814.318L11.49 11.137l10.142 5.843 10.506-6.06a9890.025 9890.025 0 01-10.16-5.832zM10.804-1.334L.328 4.706l10.664 6.144 10.486-6.048-10.674-6.136zm22.327-.014l-10.82 6.239 10.142 5.843 10.836-6.25c-2.86-1.641-6.247-3.585-10.158-5.832zM21.954-7.772L11.149-1.54l10.664 6.144 10.818-6.24c-3.213-1.845-6.772-3.89-10.677-6.136z"/></g><g filter="url(#k)" opacity=".85"><g mask="url(#j)"><use fill="url(#l)" xlink:href="#m" transform="translate(-5.566 -5.345)"/></g></g></g><path fill="url(#n)" d="M16.688 5.462l.066.036 5.64 3.179c.385.217.856.217 1.242 0l5.593-3.146a1.898 1.898 0 011.925 3.27l-.064.038-3.23 1.817a.632.632 0 000 1.102l8.718 4.915c.386.217.857.217 1.243 0l5.39-3.038a1.899 1.899 0 011.929 3.269l-.065.037-3.033 1.71a.633.633 0 000 1.102l3.05 1.72a1.897 1.897 0 01-1.798 3.342l-.065-.035-5.408-3.049a1.268 1.268 0 00-1.243 0L27.764 26.7a.632.632 0 000 1.102l3.642 2.053a1.897 1.897 0 01-1.799 3.342l-.065-.035-5.999-3.382a1.263 1.263 0 00-1.243 0l-6.05 3.41a1.898 1.898 0 01-1.928-3.268l.064-.038 3.693-2.082a.633.633 0 000-1.102l-8.736-4.925a1.266 1.266 0 00-1.242 0L2.957 24.67a1.898 1.898 0 01-1.926-3.271l.064-.038 2.781-1.565a.631.631 0 00.001-1.102L1.1 17.129a1.899 1.899 0 011.799-3.343l.065.036 5.14 2.897c.384.217.855.217 1.24 0l8.823-4.964a.632.632 0 00.001-1.102l-3.279-1.849a1.898 1.898 0 011.799-3.342zm5.704 8.271l-8.822 4.964a.632.632 0 00-.001 1.102l8.731 4.923c.386.217.857.217 1.243 0l8.814-4.969a.632.632 0 000-1.102l-8.723-4.917a1.261 1.261 0 00-1.242 0z" filter="url(#o)" transform="translate(26.34 12.36)"/><path fill="url(#p)" fill-rule="nonzero" d="M15.857 1.87v.827c.282.005.565.073.83.21l.067.034 5.64 3.18c.385.217.856.217 1.242 0l5.593-3.147c.299-.168.624-.246.944-.244v-.596h1.917V4.71h-.034a1.898 1.898 0 01-.902 1.534l-.064.038L27.86 8.1a.631.631 0 000 1.102l8.718 4.915c.386.217.857.217 1.243 0l5.39-3.039c.247-.138.51-.216.775-.238v-.163h2.073v2.135h-.02a1.893 1.893 0 01-.9 1.535l-.064.038-3.033 1.71a.632.632 0 000 1.102l2.062 1.162h1.955v2.136a1.902 1.902 0 01-2.765 1.764l-.065-.035-5.408-3.049a1.268 1.268 0 00-1.243 0l-8.814 4.969a.631.631 0 000 1.101l2.677 1.51v-.418h1.918v2.39a1.9 1.9 0 01-2.752 1.914l-.065-.036-5.999-3.381a1.263 1.263 0 00-1.243 0l-6.05 3.41a1.9 1.9 0 01-2.829-1.72h-.018v-2.577h1.917v.463l2.759-1.554a.633.633 0 000-1.102l-8.736-4.925a1.266 1.266 0 00-1.242 0l-5.144 2.894a1.898 1.898 0 01-2.829-1.611V18.36h1.757l1.991-1.12a.632.632 0 00.001-1.102L1.1 14.572a1.897 1.897 0 01-.963-1.76h-.01v-2.135H2.2v.35c.238.022.475.088.698.203l.066.036 5.14 2.896c.384.218.855.218 1.24 0L18.168 9.2a.632.632 0 00.001-1.102L14.89 6.249a1.9 1.9 0 01-.95-1.9V1.87h1.918zm6.535 9.307l-8.822 4.964a.632.632 0 00-.001 1.102l8.731 4.923c.386.217.857.217 1.243 0l8.814-4.969a.633.633 0 000-1.102l-8.723-4.917a1.264 1.264 0 00-1.242-.001z" transform="translate(26.34 12.36)"/><path fill="url(#q)" fill-rule="nonzero" d="M16.688.35l.066.035 5.64 3.18c.385.217.856.217 1.242 0L29.229.418a1.898 1.898 0 011.925 3.271l-.064.037-3.23 1.817a.633.633 0 000 1.103l8.718 4.914c.386.218.857.218 1.243 0l5.39-3.038a1.899 1.899 0 011.929 3.269l-.065.038-3.033 1.71a.631.631 0 000 1.101l3.05 1.72a1.898 1.898 0 01-1.798 3.343l-.065-.036-5.408-3.048a1.263 1.263 0 00-1.243 0l-8.814 4.968a.633.633 0 000 1.102l3.642 2.053a1.899 1.899 0 01-1.799 3.343l-.065-.036-5.999-3.382a1.268 1.268 0 00-1.243 0l-6.05 3.411a1.899 1.899 0 01-1.928-3.269l.064-.037 3.693-2.082a.633.633 0 000-1.102l-8.736-4.925a1.264 1.264 0 00-1.242 0l-5.144 2.894a1.898 1.898 0 01-1.926-3.27l.064-.038 2.781-1.565a.632.632 0 00.001-1.102L1.1 12.015a1.897 1.897 0 011.799-3.342l.065.035 5.14 2.897c.384.217.855.217 1.24 0l8.823-4.964a.631.631 0 00.001-1.102l-3.279-1.848A1.897 1.897 0 0116.688.349zm5.704 8.27l-8.822 4.965a.632.632 0 00-.001 1.102L22.3 19.61c.386.218.857.218 1.243 0l8.814-4.968a.633.633 0 000-1.102l-8.723-4.92a1.266 1.266 0 00-1.242 0z" transform="translate(26.34 12.36)"/></g></svg>