<svg xmlns="http://www.w3.org/2000/svg" xmlns:xlink="http://www.w3.org/1999/xlink" viewBox="0 0 99 74"><defs><linearGradient id="a" x1="50%" x2="50%" y1="0%" y2="100%"><stop offset="0%" stop-opacity=".053"/><stop offset="100%" stop-opacity=".941"/></linearGradient><linearGradient id="c" x1=".702%" x2="98.733%" y1="50%" y2="50%"><stop offset="0%" stop-color="#FFF" stop-opacity=".639"/><stop offset="100%" stop-color="#FFF"/></linearGradient><linearGradient id="d" x1="50%" x2="50%" y1=".257%" y2="100%"><stop offset="0%" stop-color="#FFF" stop-opacity="0"/><stop offset="100%" stop-color="#FFF" stop-opacity=".4"/></linearGradient><linearGradient id="e" x1="1.358%" x2="100%" y1="50%" y2="50%"><stop offset="0%" stop-color="#FFF" stop-opacity=".7"/><stop offset="100%" stop-color="#FFF" stop-opacity=".9"/></linearGradient><linearGradient id="f" x1="50%" x2="50%" y1=".257%" y2="100%"><stop offset="0%" stop-color="#FFF" stop-opacity="0"/><stop offset="100%" stop-color="#FFF"/></linearGradient><linearGradient id="n" x1="62.212%" x2="62.212%" y1="0%" y2="100%"><stop offset="0%" stop-opacity=".4"/><stop offset="100%"/></linearGradient><linearGradient id="q" x1="50%" x2="80.75%" y1="32.404%" y2="67.596%"><stop offset="0%" stop-color="#DF8826"/><stop offset="100%" stop-color="#DB7D11"/></linearGradient><filter id="b" width="114.3%" height="124.8%" x="-7.1%" y="-12.4%" filterUnits="objectBoundingBox"><feGaussianBlur in="SourceGraphic" stdDeviation="2.045"/></filter><filter id="h" width="127.8%" height="148.2%" x="-13.9%" y="-24.1%" filterUnits="objectBoundingBox"><feGaussianBlur in="SourceAlpha" result="shadowBlurInner1" stdDeviation="2.5"/><feOffset dy="19" in="shadowBlurInner1" result="shadowOffsetInner1"/><feComposite in="shadowOffsetInner1" in2="SourceAlpha" k2="-1" k3="1" operator="arithmetic" result="shadowInnerInner1"/><feColorMatrix in="shadowInnerInner1" values="0 0 0 0 0 0 0 0 0 0 0 0 0 0 0 0 0 0 0.5 0"/></filter><filter id="k"><feColorMatrix in="SourceGraphic" values="0 0 0 0 0.858824 0 0 0 0 0.490196 0 0 0 0 0.066667 0 0 0 1.000000 0"/></filter><filter id="o" width="206.3%" height="279.1%" x="-53.1%" y="-89.6%" filterUnits="objectBoundingBox"><feGaussianBlur in="SourceGraphic" stdDeviation="7.2"/></filter><radialGradient id="i" cx="48.18%" cy="52.179%" r="29.45%" fx="48.18%" fy="52.179%" gradientTransform="matrix(-.57363 .10715 -.04042 -.65 .78 .81)"><stop offset="0%" stop-color="#FFF"/><stop offset="99.137%" stop-color="#FFF" stop-opacity="0"/><stop offset="100%" stop-color="#CC7613" stop-opacity="0"/></radialGradient><radialGradient id="l" cx="50%" cy="56.122%" r="43.878%" fx="50%" fy="56.122%" gradientTransform="matrix(0 1 -1.04665 0 1.087 .061)"><stop offset="0%" stop-color="#FFF" stop-opacity=".622"/><stop offset="100%" stop-color="#FFF" stop-opacity="0"/></radialGradient><radialGradient id="p" cx="77.364%" cy="47.298%" r="109.159%" fx="77.364%" fy="47.298%" gradientTransform="matrix(-.58944 .11277 -.0669 -.99362 1.261 .856)"><stop offset="0%" stop-color="#B06610"/><stop offset="100%" stop-color="#8E510B"/></radialGradient><ellipse id="m" cx="48.098" cy="25.719" rx="48.098" ry="25.719"/><path id="g" d="M52.216 2.55C46.87-.532 38.773-.867 34.144 1.802L3.124 19.69c-4.628 2.67-4.047 7.34 1.298 10.422l29.624 17.084c5.345 3.082 13.443 3.418 18.072.748l31.019-17.888c4.629-2.67 4.048-7.34-1.298-10.422L52.216 2.55z"/></defs><g fill="none" fill-rule="evenodd"><path fill="url(#a)" d="M57.259 15.285c-5.32-3.06-13.379-3.394-17.986-.743L8.402 32.303c-4.607 2.65-4.028 7.288 1.291 10.348l29.482 16.963c5.32 3.06 13.38 3.393 17.986.743l30.871-17.762c4.607-2.65 4.029-7.287-1.291-10.348L57.259 15.285z" filter="url(#b)" opacity=".3" transform="translate(1.496 4.747)"/><path fill="url(#c)" fill-opacity=".5" stroke="url(#d)" stroke-width="2.765" d="M58.018 7.244c-5.94-3.425-14.937-3.798-20.08-.832L3.471 26.288c-5.143 2.966-4.498 8.155 1.442 11.58L37.829 56.85c5.939 3.425 14.936 3.797 20.08.831l34.465-19.876c5.144-2.966 4.498-8.155-1.441-11.58L58.018 7.244z" transform="translate(1.496 4.747)"/><path fill="url(#e)" stroke="url(#f)" stroke-width="2.765" d="M58.018 2.833c-5.94-3.424-14.937-3.797-20.08-.83L3.471 21.877c-5.143 2.966-4.498 8.155 1.442 11.58L37.829 52.44c5.939 3.425 14.936 3.797 20.08.831l34.465-19.876c5.144-2.966 4.498-8.155-1.441-11.58L58.018 2.833z" opacity=".9" transform="translate(1.496 4.747)"/><g transform="translate(6.288 7.511)"><mask id="j" fill="#fff"><use xlink:href="#g"/></mask><use fill="#10072A" xlink:href="#g"/><use fill="#000" filter="url(#h)" xlink:href="#g"/><g fill="url(#i)" fill-rule="nonzero" mask="url(#j)" opacity=".166"><path d="M163.514-77.216c.409.21.368.363.249.431L33.409-1.544 43.534 4.29l130.647-75.411c.409.21.368.362.25.43L44.033 4.578l10.646 6.135 130.55-75.356c.41.21.368.362.25.43L54.944 11.135c1.225.682 4.79 2.717 10.698 6.103l130.635-75.405c.408.21.368.362.249.431L66.14 17.524c2.857 1.638 6.238 3.58 10.143 5.823l130.66-75.419c.41.21.369.363.25.431L76.783 23.633l.825.475c21.281 12.227 57.237 32.93 107.87 62.106a.25.25 0 01.116.278l-.026.062c-.041.072-36.414-20.835-109.119-62.722l-10.8 6.228c21.158 12.156 57.418 33.033 108.78 62.63.12.069.16.22.091.34-.042.072-36.443-20.852-109.205-62.772l-10.47 6.038c21.192 12.176 57.37 33.005 108.536 62.49.119.068.16.22.091.339-.042.072-36.362-20.805-108.961-62.631l-10.61 6.12c21.154 12.153 57.425 33.035 108.813 62.647.119.069.16.221.09.34-.041.073-36.453-20.857-109.236-62.79l-10.471 6.038c21.188 12.173 57.377 33.009 108.569 62.507.119.07.16.221.09.34-.041.073-36.372-20.81-108.993-62.65l-10.28 5.929c21.196 12.177 57.367 33.003 108.515 62.477.12.068.16.22.091.34-.041.072-36.354-20.8-108.938-62.618l-76.305 44.042c-.409-.21-.368-.362-.249-.43l76.057-43.899-10.125-5.834-76.35 44.068c-.409-.21-.368-.362-.25-.431l76.1-43.924L.383 42.631-75.87 86.645c-.408-.21-.367-.363-.248-.431L-.041 42.299a.246.246 0 01.018-.17c-1.163-.648-4.684-2.657-10.557-6.023l-76.337 44.062c-.408-.21-.368-.363-.249-.431l76.09-43.918c-2.851-1.634-6.232-3.575-10.144-5.823l-76.364 44.076c-.409-.21-.368-.362-.249-.43l76.111-43.934c-3.205-1.84-6.758-3.883-10.659-6.126l-76.251 44.014c-.409-.21-.368-.362-.249-.43l76.005-43.87a128949.448 128949.448 0 01-97.721-56.27.248.248 0 01-.091-.34c.04-.069 32.758 18.733 98.155 56.406l10.27-5.92a141455.851 141455.851 0 01-97.666-56.243.248.248 0 01-.091-.34c.04-.069 32.74 18.723 98.1 56.374l10.46-6.03a135130.14 135130.14 0 01-97.421-56.1.248.248 0 01-.091-.34c.04-.068 32.659 18.677 97.858 56.235L-.516 4.616c-21.834-12.555-54.4-31.307-97.698-56.257a.247.247 0 01-.09-.34c.039-.068 32.75 18.73 98.132 56.393l10.46-6.03c-21.832-12.554-54.317-31.26-97.454-56.118a.247.247 0 01-.09-.34c.039-.068 32.669 18.682 97.888 56.253l10.79-6.221a142139.393 142139.393 0 01-97.54-56.168.248.248 0 01-.09-.34c.04-.069 32.697 18.698 97.974 56.301l.026-.011a.978.978 0 01.26.176l10.243 5.901.616.355 130.603-75.386zM22.143 42.926l-10.299 5.94c2.863 1.641 6.244 3.582 10.144 5.823l10.28-5.93-10.125-5.833zm-11.146-6.423l-.262.15L.65 42.474c1.388.778 4.953 2.813 10.694 6.105l10.3-5.94-10.647-6.136zm21.949.187l-10.488 6.05c2.86 1.64 6.242 3.581 10.143 5.822l10.471-6.038-10.126-5.834zM21.8 30.267l-10.54 6.08c1.343.752 4.908 2.786 10.697 6.105l10.49-6.05L21.8 30.267zm22.09.106l-10.631 6.13c2.853 1.635 6.234 3.576 10.143 5.822l10.613-6.119-10.125-5.833zM.034 29.978l-10.299 5.942 10.59 6.102.048.036 10.247-5.913c0-.038.008-.076.025-.112-1.165-.65-4.704-2.669-10.611-6.055zm32.71-6.028l-10.578 6.106a.26.26 0 01-.026.101c1.168.65 4.71 2.672 10.623 6.061l10.63-6.132-10.65-6.136zm21.95.187l-10.489 6.05c2.862 1.64 6.243 3.582 10.143 5.822l10.47-6.038-10.124-5.834zm-43.854-.393L.348 29.794l10.645 6.133.001.001 10.541-6.08c-1.333-.746-4.898-2.78-10.695-6.104zm-21.447.126l-10.283 5.928 10.126 5.834 10.3-5.94a12177.13 12177.13 0 01-10.143-5.822zm54.153-6.157L33.208 23.68l-.198.115c1.37.767 4.934 2.802 10.694 6.104l10.49-6.05-10.648-6.136zm22.281-.003l-10.821 6.24c2.854 1.636 6.235 3.577 10.144 5.822l10.803-6.228-10.126-5.834zm-44.046-.286l-10.63 6.133 10.647 6.135 10.54-6.084c-.007-.049 0-.1.023-.147-1.165-.649-4.693-2.662-10.58-6.037zm-43.548.032l-10.266 5.922 10.646 6.133 10.28-5.928c-3.206-1.842-6.76-3.884-10.66-6.127zm21.962.178l-10.47 6.038 10.124 5.834 10.489-6.05c-2.86-1.64-6.242-3.581-10.143-5.822zm54.487-6.346l-10.805 6.236a.315.315 0 01-.022.063c1.169.65 4.722 2.677 10.655 6.078l10.818-6.242-10.646-6.135zm-65.644-.067l-10.458 6.03 10.646 6.134 10.472-6.037-10.66-6.127zm43.548-.03l-10.49 6.05 10.613 6.115.028.021 10.545-6.083c-1.306-.73-4.871-2.764-10.696-6.104zm-21.446.126L.527 17.436l10.126 5.834 10.63-6.13c-2.85-1.635-6.232-3.576-10.143-5.823zM-.02 4.903l-10.596 6.113L.03 17.149l10.61-6.12C7.434 9.188 3.88 7.146-.02 4.903zm43.74-.14l-10.822 6.24 10.647 6.135 10.87-6.273c-1.226-.683-4.79-2.717-10.696-6.102zm-21.778.317l-10.47 6.04c3.3 1.9 6.675 3.845 10.124 5.833l10.489-6.05c-2.86-1.64-6.24-3.58-10.143-5.823zM10.785-1.333L.328 4.699l10.645 6.133 10.471-6.038a24415.9 24415.9 0 01-10.659-6.127zm22.292-.013L22.274 4.882l10.125 5.834 10.82-6.24C40.363 2.838 36.982.897 33.077-1.346zM21.919-7.759L11.131-1.537l10.646 6.133 10.8-6.229-10.658-6.126z"/></g><g filter="url(#k)" opacity=".734"><g mask="url(#j)"><use fill="url(#l)" xlink:href="#m" transform="translate(-5.557 -5.336)"/></g></g></g><path fill="url(#n)" d="M.418 21.596l.05-.03L25.144 6.873c.975-.58 2.817-.237 3.341.608l.027.046 12.042 21.828c.343.622-.215 1.217-1.247 1.33-1.006.108-2.092-.283-2.462-.88l-.026-.045-10.2-18.49c-.23-.415-.972-.69-1.66-.616-.228.025-.43.087-.586.18L3.469 23.28c-.686.409-1.886.376-2.714-.066l-.06-.033c-.81-.462-.926-1.162-.277-1.585zm12.241 2.376l.049-.03 8.164-4.908c.972-.584 2.818-.242 3.345.604l.027.047 4.06 7.329c.344.622-.212 1.217-1.243 1.33-1.006.11-2.093-.281-2.464-.878l-.026-.044-2.577-4.652c-.114-.207-.486-.344-.83-.307a.754.754 0 00-.294.09l-5.15 3.096c-.683.41-1.883.381-2.713-.06l-.06-.032c-.812-.46-.933-1.16-.288-1.585z" filter="url(#o)" transform="translate(26.405 16.334)"/><path fill="url(#p)" d="M28.486 4.342l.027.046 10.335 18.735h1.808v3.446c.01.48-.514.886-1.348.976-1.006.11-2.092-.283-2.462-.88l-.026-.044-10.2-18.49c-.23-.415-.972-.69-1.66-.616-.228.025-.43.087-.586.18L3.469 20.14c-.686.409-1.886.376-2.714-.066l-.06-.033c-.377-.215-.603-.482-.672-.748H0V15.85h4.134v.394l21.011-12.51c.975-.58 2.817-.236 3.341.609zm-4.27 12.157l.028.047 2.359 4.258 1.803.001v3.446c-.007.47-.526.864-1.345.954-1.006.11-2.093-.281-2.464-.878l-.026-.044-2.577-4.652c-.114-.207-.486-.345-.83-.307a.738.738 0 00-.294.09l-5.15 3.096c-.683.41-1.883.381-2.713-.06l-.06-.032c-.526-.299-.762-.697-.688-1.056h-.011v-3.446h4.29l-.001.583 4.335-2.604c.972-.584 2.818-.242 3.345.604z" transform="translate(26.405 16.334)"/><path fill="url(#q)" d="M.418 15.012l.05-.03L25.144.287c.975-.58 2.817-.236 3.341.608l.027.047L40.555 22.77c.343.622-.215 1.217-1.247 1.329-1.006.109-2.092-.283-2.462-.88l-.026-.044-10.2-18.49c-.23-.415-.972-.691-1.66-.617-.228.025-.43.087-.586.18L3.469 16.696c-.686.408-1.886.376-2.714-.067l-.06-.033c-.81-.462-.926-1.162-.277-1.584zm12.241 2.375l.049-.03 8.164-4.907c.972-.584 2.818-.242 3.345.603l.027.047 4.06 7.33c.344.621-.212 1.217-1.243 1.33-1.006.11-2.093-.282-2.464-.879l-.026-.044-2.577-4.651c-.114-.207-.486-.345-.83-.307a.722.722 0 00-.294.09l-5.15 3.096c-.683.41-1.883.38-2.713-.06l-.06-.033c-.812-.46-.933-1.16-.288-1.585z" transform="translate(26.405 16.334)"/></g></svg>