<svg xmlns="http://www.w3.org/2000/svg" viewBox="0 0 64 64"><g fill="#1e54d5"><path d="M31.908 1.333c.585 0 1.244.073 1.83.366l22.32 10.684c1.098.586 1.976 1.537 2.342 2.708l5.562 23.932c.147 1.244-.146 2.489-.878 3.513L47.643 61.639c-.805 1.098-2.05 1.683-3.367 1.537h-24.59c-1.245-.073-2.489-.659-3.367-1.537L.876 42.537a4.619 4.619 0 01-.805-3.513l5.49-24.078a3.93 3.93 0 012.195-2.708L30.078 1.479c.585-.146 1.244-.146 1.83-.146zm-1.143 12.22a1.21 1.21 0 00-.355.717l-.007.13v.301c0 .242.06.483.12.725.061.121.061.242.061.363v.06c.121.665.121 1.33.121 2.054-.06.181-.12.363-.302.483v.121l-.06.483c-.665.06-1.33.182-2.054.303-2.84.604-5.438 2.114-7.431 4.228l-.363-.241h-.06c-.06 0-.12.06-.242.06-.12 0-.241-.06-.362-.12a12.075 12.075 0 01-1.29-1.149l-.22-.241c-.06-.121-.182-.181-.242-.242-.181-.181-.302-.362-.483-.543-.06-.06-.121-.06-.182-.121l-.03-.03-.026-.027-.004-.003a1.441 1.441 0 00-.846-.303c-.362 0-.664.121-.846.423a1.297 1.297 0 00.144 1.597l.098.095c.06 0 .06.06.06.06s.121.12.182.12c.18.122.423.243.664.363l.181.091.182.09c.604.363 1.208.726 1.691 1.209.104.103.207.296.197.463l-.007.029.354.354c-.06.12-.12.18-.181.302-1.873 2.96-2.658 6.464-2.115 9.907l-.483.121c0 .06-.06.06-.06.06-.06.182-.242.303-.423.423-.532.145-1.064.252-1.626.32l-.428.043c-.121 0-.242 0-.363.06-.242 0-.483.06-.725.06-.06 0-.12.061-.241.061-.046 0-.057 0-.085.026l-.036.035a1.176 1.176 0 00-.983 1.265l.016.124c.12.544.665.906 1.208.846.091 0 .148 0 .221-.026l.081-.035c.06 0 .06 0 .06-.06s.182 0 .242 0c.242-.06.484-.181.665-.242.12-.06.242-.12.362-.12h.06a10.78 10.78 0 011.995-.544h.06c.181 0 .362.06.483.181.046 0 .057.034.06.051v.01l.544-.06c.907 2.778 2.598 5.255 4.954 7.067.544.423 1.027.786 1.631 1.088l-.302.423c0 .06.06.06.06.06.121.181.121.423.061.604-.242.604-.604 1.208-.967 1.752v.06c-.06.121-.12.182-.241.303-.121.12-.242.362-.423.604-.06.06-.06.12-.12.181 0 0 0 .034-.026.051l-.035.01c-.302.604-.06 1.328.483 1.63.12.061.302.121.423.121.435 0 .82-.244 1.07-.602l.078-.123s0-.06.06-.06c0-.06.06-.12.121-.181.06-.242.181-.423.242-.665l.12-.362c.182-.665.484-1.269.786-1.873a.942.942 0 01.483-.363c.048 0 .058 0 .06-.03v-.03l.242-.483c1.692.664 3.444.966 5.256.966 1.087 0 2.175-.12 3.262-.423.665-.12 1.33-.362 1.934-.543l.241.423c.06 0 .06 0 .06.06.182.06.363.181.484.363.302.604.604 1.208.785 1.872v.06l.121.363c.06.242.12.484.242.665.06.06.06.12.12.181 0 0 0 .034.026.051l.035.01c.242.422.665.724 1.148.724.181 0 .302-.06.483-.12.242-.121.483-.363.544-.665a1.62 1.62 0 00-.01-.755l-.05-.151c0-.06-.061-.06-.061-.06 0-.061-.06-.121-.12-.182a2.187 2.187 0 00-.424-.604c-.06-.12-.12-.181-.241-.302v-.12c-.423-.545-.725-1.149-.967-1.753-.06-.181-.06-.423.06-.604 0-.045.034-.057.051-.06h.01l-.181-.484c3.08-1.872 5.437-4.772 6.524-8.216l.483.06c.06 0 .06-.06.06-.06a.694.694 0 01.484-.181h.06c.665.12 1.33.302 1.934.544h.06c.121.06.242.12.363.12.241.121.423.242.664.303.06 0 .121.06.242.06.045 0 .057 0 .085.026l.036.034c.12.06.18.06.302.06.543 0 1.027-.362 1.208-.845a1.43 1.43 0 00-.972-1.237l-.115-.032c-.06 0-.121 0-.121-.06s-.121-.06-.242-.06c-.242-.06-.483-.06-.725-.06-.12 0-.241 0-.362-.061h-.06c-.665-.06-1.39-.181-2.055-.363a.738.738 0 01-.383-.333l-.04-.09-.483-.12c.242-1.752.12-3.565-.242-5.317a16.341 16.341 0 00-2.114-4.954l.362-.362v-.06c0-.182.06-.423.182-.544.453-.403.906-.722 1.394-1.027l.297-.181.363-.182c.241-.12.423-.241.664-.362.06-.06.121-.06.181-.12.049-.05.02-.059.006-.092l-.006-.03c.544-.423.665-1.148.242-1.691a1.153 1.153 0 00-.846-.423 1.4 1.4 0 00-.72.217l-.125.085-.06.06c-.061.06-.122.121-.182.121-.181.181-.363.363-.483.544-.046.09-.125.147-.187.195l-.055.046a7.966 7.966 0 01-1.51 1.33c-.121.06-.242.12-.363.12-.06 0-.181 0-.241-.06h-.06l-.484.302c-.483-.483-1.027-.967-1.51-1.45-2.236-1.752-5.015-2.84-7.854-3.141l-.06-.484v.06c-.182-.12-.242-.301-.303-.483 0-.664 0-1.329.121-2.054v-.06c0-.12.06-.242.06-.362.061-.242.061-.484.121-.725v-.363c.06-.604-.422-1.208-1.027-1.269-.362-.06-.724.121-1.027.423zm1.209 25.857c.136.09.238.181.357.297l.126.126 2.9 5.256c-.363.06-.725.12-1.148.241-.846.182-1.692.302-2.598.302-1.268 0-2.598-.241-3.806-.604l2.96-5.376c.303-.363.786-.484 1.209-.242zm-5.498-2.598c.483 0 .967.302 1.027.786a.75.75 0 01-.01.509l-.05.095-2.296 5.558c-2.114-1.39-3.806-3.504-4.652-5.92l5.981-1.028zm10.21-.06l6.041 1.027c-.302.846-.664 1.63-1.148 2.295a11.538 11.538 0 01-3.624 3.625l-2.357-5.679c-.12-.483.121-.966.544-1.147.181-.06.363-.121.544-.121zm-4.169-4.833l1.148 1.45-.423 1.752-1.63.785-1.632-.785-.423-1.752 1.148-1.45h1.812zm9.123-4.29a12.31 12.31 0 011.45 3.565A11.56 11.56 0 0143.331 35l-5.739-1.631c-.544-.121-.846-.665-.725-1.209.06-.18.12-.302.242-.422l4.53-4.109zm-20.118 0l4.47 3.988c.424.362.484.966.122 1.39-.121.18-.242.24-.484.301L19.77 35a12.724 12.724 0 011.752-7.37zm8.579-5.557l-.302 6.04c0 .544-.483.967-1.027.967-.181 0-.302-.06-.483-.12l-5.015-3.565c1.571-1.51 3.504-2.598 5.619-3.08l1.208-.242zm2.9.06c2.658.302 5.014 1.45 6.826 3.262l-4.953 3.504c-.423.242-1.028.181-1.33-.242a.547.547 0 01-.18-.422L33 22.132z" opacity=".6"/><path d="M31.672 6.666c.483 0 1.027.06 1.51.302l18.426 8.82c.906.484 1.63 1.27 1.933 2.236l4.591 19.755a4.121 4.121 0 01-.725 2.9L44.66 56.446c-.664.906-1.691 1.39-2.779 1.269H21.583c-1.027-.06-2.054-.544-2.78-1.269L6.058 40.679a3.814 3.814 0 01-.665-2.9l4.53-19.876a3.246 3.246 0 011.813-2.235l18.425-8.88c.484-.122 1.027-.122 1.51-.122zm-.907 6.887a1.21 1.21 0 00-.355.717l-.007.13v.301c0 .242.06.483.12.725.061.121.061.242.061.363v.06c.121.665.121 1.33.121 2.054-.06.181-.12.363-.302.483v.121l-.06.483c-.665.06-1.33.182-2.054.303-2.84.604-5.438 2.114-7.431 4.228l-.363-.241h-.06c-.06 0-.12.06-.242.06-.12 0-.241-.06-.362-.12a12.075 12.075 0 01-1.29-1.149l-.22-.241c-.06-.121-.182-.181-.242-.242-.181-.181-.302-.362-.483-.543-.06-.06-.121-.06-.182-.121l-.03-.03-.03-.03a1.441 1.441 0 00-.846-.303c-.362 0-.664.121-.846.423a1.297 1.297 0 00.144 1.597l.098.095c.06 0 .06.06.06.06s.121.12.182.12c.18.122.423.243.664.363l.181.091.182.09c.604.363 1.208.726 1.691 1.209.104.103.207.296.197.463l-.006.03.353.353c-.06.12-.12.18-.181.302-1.873 2.96-2.658 6.464-2.115 9.907l-.483.121c0 .06-.06.06-.06.06-.06.182-.242.303-.423.423-.532.145-1.064.252-1.626.32l-.428.043c-.121 0-.242 0-.363.06-.242 0-.483.06-.725.06-.06 0-.12.061-.241.061-.046 0-.057 0-.085.026l-.036.035a1.176 1.176 0 00-.983 1.265l.016.124c.12.544.665.906 1.208.846.091 0 .148 0 .221-.026l.081-.035c.06 0 .06 0 .06-.06s.182 0 .242 0c.242-.06.484-.181.665-.242.12-.06.242-.12.362-.12h.06a10.78 10.78 0 011.995-.544h.06c.181 0 .362.06.483.181.046 0 .057.034.06.051v.01l.544-.06c.907 2.778 2.598 5.255 4.954 7.067.544.423 1.027.786 1.631 1.088l-.302.423c0 .06.06.06.06.06.121.181.121.423.061.604-.242.604-.604 1.208-.967 1.752v.06c-.06.121-.12.182-.241.303-.121.12-.242.362-.423.604-.06.06-.06.12-.12.181 0 0 0 .034-.026.051l-.035.01c-.302.604-.06 1.328.483 1.63.12.061.302.121.423.121.435 0 .82-.244 1.07-.602l.078-.123s0-.06.06-.06c0-.06.06-.12.121-.181.06-.242.181-.423.242-.665l.12-.362c.182-.665.484-1.269.786-1.873a.942.942 0 01.483-.363c.048 0 .058 0 .06-.03v-.03l.242-.483c1.692.664 3.444.966 5.256.966 1.087 0 2.175-.12 3.262-.423.665-.12 1.33-.362 1.934-.543l.241.423c.06 0 .06 0 .06.06.182.06.363.181.484.363.302.604.604 1.208.785 1.872v.06l.121.363c.06.242.12.484.242.665.06.06.06.12.12.181 0 0 0 .034.026.051l.035.01c.242.422.665.724 1.148.724.181 0 .302-.06.483-.12.242-.121.483-.363.544-.665a1.62 1.62 0 00-.01-.755l-.05-.151c0-.06-.061-.06-.061-.06 0-.061-.06-.121-.12-.182a2.187 2.187 0 00-.424-.604c-.06-.12-.12-.181-.241-.302v-.12c-.423-.545-.725-1.149-.967-1.753-.06-.181-.06-.423.06-.604 0-.045.034-.057.051-.06h.01l-.181-.484c3.08-1.872 5.437-4.772 6.524-8.216l.483.06c.06 0 .06-.06.06-.06a.694.694 0 01.484-.181h.06c.665.12 1.33.302 1.934.544h.06c.121.06.242.12.363.12.241.121.423.242.664.303.06 0 .121.06.242.06.045 0 .057 0 .085.026l.036.034c.12.06.18.06.302.06.543 0 1.027-.362 1.208-.845a1.43 1.43 0 00-.972-1.237l-.115-.032c-.06 0-.121 0-.121-.06s-.121-.06-.242-.06c-.242-.06-.483-.06-.725-.06-.12 0-.241 0-.362-.061h-.06c-.665-.06-1.39-.181-2.055-.363a.738.738 0 01-.383-.333l-.04-.09-.483-.12c.242-1.752.12-3.565-.242-5.317a16.341 16.341 0 00-2.114-4.954l.362-.362v-.06c0-.182.06-.423.182-.544.453-.403.906-.722 1.394-1.027l.297-.181.363-.182c.241-.12.423-.241.664-.362.06-.06.121-.06.181-.12.049-.05.02-.059.006-.092l-.006-.03c.544-.423.665-1.148.242-1.691a1.153 1.153 0 00-.846-.423 1.4 1.4 0 00-.72.217l-.125.085-.06.06c-.061.06-.122.121-.182.121-.181.181-.363.363-.483.544-.046.09-.125.147-.187.195l-.055.046a7.966 7.966 0 01-1.51 1.33c-.121.06-.242.12-.363.12-.06 0-.181 0-.241-.06h-.06l-.484.302c-.483-.483-1.027-.967-1.51-1.45-2.236-1.752-5.015-2.84-7.854-3.141l-.06-.484v.06c-.182-.12-.242-.301-.303-.483 0-.664 0-1.329.121-2.054v-.06c0-.12.06-.242.06-.362.061-.242.061-.484.121-.725v-.363c.06-.604-.422-1.208-1.027-1.269-.362-.06-.724.121-1.027.423zm1.209 25.857c.136.09.238.181.357.297l.126.126 2.9 5.256c-.363.06-.725.12-1.148.241-.846.182-1.692.302-2.598.302-1.268 0-2.598-.241-3.806-.604l2.96-5.376c.303-.363.786-.484 1.209-.242zm-5.498-2.598c.483 0 .967.302 1.027.786a.75.75 0 01-.01.509l-.05.095-2.296 5.558c-2.114-1.39-3.806-3.504-4.652-5.92l5.981-1.028zm10.21-.06l6.041 1.027c-.302.846-.664 1.63-1.148 2.295a11.538 11.538 0 01-3.624 3.625l-2.357-5.679c-.12-.483.121-.966.544-1.147.181-.06.363-.121.544-.121zm-4.169-4.833l1.148 1.45-.423 1.752-1.63.785-1.632-.785-.423-1.752 1.148-1.45h1.812zm9.123-4.29a12.31 12.31 0 011.45 3.565A11.56 11.56 0 0143.331 35l-5.739-1.631c-.544-.121-.846-.665-.725-1.209.06-.18.12-.302.242-.422l4.53-4.109zm-20.118 0l4.47 3.988c.424.362.484.966.122 1.39-.121.18-.242.24-.484.301L19.77 35a12.724 12.724 0 011.752-7.37zm8.579-5.557l-.302 6.04c0 .544-.483.967-1.027.967-.181 0-.302-.06-.483-.12l-5.015-3.565c1.571-1.51 3.504-2.598 5.619-3.08l1.208-.242zm2.9.06c2.658.302 5.014 1.45 6.826 3.262l-4.953 3.504c-.423.242-1.028.181-1.33-.242a.547.547 0 01-.18-.422L33 22.132z"/></g></svg>