<svg xmlns="http://www.w3.org/2000/svg" viewBox="0 0 64 64"><g fill="#1e54d5"><path d="M50.15 30.859a3.793 3.793 0 012.383 0l8.883 2.965A3.885 3.885 0 0164 37.408v11.659a3.776 3.776 0 01-2.592 3.589l-8.888 2.96a3.777 3.777 0 01-2.387 0l-8.872-2.965a3.771 3.771 0 01-2.584-3.584V37.408a3.775 3.775 0 012.582-3.584zm9.6 8.413a.664.664 0 00-.595-.09l-6.488 2.165v9.13a.667.667 0 00.88.632l6.144-2.096a.66.66 0 00.453-.64l-.112-8.568a.67.67 0 00-.281-.533zm-8.489-4.605l-3.477 1.165a.666.666 0 000 1.264l2.376.8c.14.05.294.05.435 0 .546-.195 1.997-.699 3.213-1.117a.666.666 0 000-1.264l-2.547-.848zM36.664.213a4.266 4.266 0 012.667 0l11.114 3.715a4.338 4.338 0 012.888 4v14.573a4.213 4.213 0 01-2.888 4.006l-11.112 3.701c-.866.285-1.8.285-2.666 0l-11.112-3.707a4.216 4.216 0 01-2.888-4V7.928a4.208 4.208 0 012.888-4.005zm12.373 9.28a.658.658 0 00-.602-.093l-8.646 2.88a.667.667 0 00-.456.632v12.123a.665.665 0 00.875.632l8.512-2.806a.663.663 0 00.459-.624l.125-12.197a.675.675 0 00-.267-.547zM38.075 4.011l-6.206 2.037a.667.667 0 000 1.264l4.974 1.659c.14.048.292.048.432 0 .824-.288 3.85-1.323 5.866-2.008a.667.667 0 000-1.264L38.075 4.01z" opacity=".6"/><path d="M32.8 32.968l-13.333-4.435a4.701 4.701 0 00-2.934 0L3.2 32.976A4.661 4.661 0 000 37.397v17.491a4.66 4.66 0 003.2 4.427l13.333 4.445a4.645 4.645 0 002.934 0L32.8 59.317a4.664 4.664 0 003.2-4.429v-17.49a4.8 4.8 0 00-3.2-4.43zm-15.013-.648a.665.665 0 01.423-.003l7.585 2.528a.667.667 0 010 1.264c-2.702.915-7.467 2.534-8.534 2.902a.657.657 0 01-.429 0L9.16 36.453a.666.666 0 010-1.266l8.627-2.867zm13.757 23.2l-11.333 3.779a.668.668 0 01-.878-.632V42.952c0-.287.184-.541.456-.632l11.334-3.779a.668.668 0 01.877.635v15.712a.667.667 0 01-.456.632z"/></g></svg>