<svg xmlns="http://www.w3.org/2000/svg" viewBox="0 0 36 36"><g fill="none"><path fill="#618FFE" d="M26.25 24.72v6.03a.75.75 0 01-.75.75h-2.917a1.5 1.5 0 10.001 3H25.5a3.75 3.75 0 003.75-3.75v-6.03a1.5 1.5 0 00-3 0z"/><path fill="#1E54D5" d="M18 6a2.25 2.25 0 002.25-2.25v-1.5A2.25 2.25 0 0018 0H2.25A2.25 2.25 0 000 2.25v1.5A2.25 2.25 0 002.25 6H18zm15.75 16.5A2.25 2.25 0 0036 20.25v-1.5a2.25 2.25 0 00-2.25-2.25H18a2.25 2.25 0 00-2.25 2.25v1.5A2.25 2.25 0 0018 22.5h15.75z"/><path fill="#618FFE" d="M22.5 14.247V13.5a3.75 3.75 0 00-3.75-3.75h-6A.75.75 0 0112 9v-.761a1.5 1.5 0 00-3 0V9a3.75 3.75 0 003.75 3.75h6a.75.75 0 01.75.75v.747a1.5 1.5 0 003 0z"/><path fill="#1E54D5" d="M18 36a2.25 2.25 0 002.25-2.25v-1.5A2.25 2.25 0 0018 30H2.25A2.25 2.25 0 000 32.25v1.5A2.25 2.25 0 002.25 36H18z"/></g></svg>