<svg xmlns="http://www.w3.org/2000/svg" viewBox="0 0 64 64"><g fill="#1e54d5"><path d="M45.471 12.35a4.582 4.582 0 012.829 4.252l-.006.215-.12 2.325a1.92 1.92 0 001.833 2.014h.18l2.326-.12a4.583 4.583 0 013.474 7.819l-.168.16-1.728 1.557a1.917 1.917 0 00-.127 2.718l.127.127 1.728 1.563a4.582 4.582 0 01-3.092 7.985l-.214-.007-2.326-.12a1.976 1.976 0 00-1.453.56 1.945 1.945 0 00-.56 1.274v.18l.12 2.325a4.584 4.584 0 01-7.819 3.474l-.16-.167-1.562-1.728a1.973 1.973 0 00-2.714-.123l-.13.123-1.562 1.73a4.58 4.58 0 01-2.326 1.383V38.853a8.657 8.657 0 005.31 1.812 8.678 8.678 0 008.659-8.667 8.666 8.666 0 00-13.97-6.855l.001-13.015a4.586 4.586 0 012.167 1.214l.16.168 1.562 1.73a1.974 1.974 0 002.713.123l.13-.122 1.562-1.73a4.584 4.584 0 015.156-1.162z"/><path d="M52.021 49.333A2.667 2.667 0 0049.354 52v1.333c0 .737-.597 1.334-1.333 1.334H33.354a1.333 1.333 0 01-1.333-1.334V10.667c0-.737.597-1.334 1.333-1.334h14.667c.736 0 1.333.597 1.333 1.334v2.666a2.667 2.667 0 105.334 0V6.667A2.668 2.668 0 0052.021 4h-20V1.333A1.333 1.333 0 0030.4.032l-24 5.333a1.335 1.335 0 00-1.047 1.302v50.666c0 .627.434 1.17 1.046 1.304l24 5.334c.395.083.807-.015 1.122-.267.316-.253.5-.636.499-1.04v-2.667h20a2.667 2.667 0 002.667-2.666v-5.334a2.668 2.668 0 00-2.667-2.664zm-26.667-16a4 4 0 11-8 0 4 4 0 018 0z" opacity=".6"/></g></svg>