<svg xmlns="http://www.w3.org/2000/svg" viewBox="0 0 64 64"><g fill="#1e54d5"><path d="M2.167 35.46l.19.026L32 40.876l29.642-5.39a2 2 0 01.904 3.892l-.188.043-30 5.456c-.178.032-.358.04-.537.024l-.179-.024-30-5.456a2 2 0 01.525-3.961zM32.179 19.1l.179.024 30 5.456a2 2 0 01-.525 3.961l-.19-.026L32 23.123 2.358 28.514a2 2 0 01-2.282-1.422l-.044-.187a2.002 2.002 0 011.422-2.283l.188-.043 30-5.456c.178-.032.358-.04.537-.024z" opacity=".6"/><path d="M32 0c1.04 0 1.894.793 1.99 1.807L34 2v2.747l10.732 4.391.011.005 18.014 7.369a2 2 0 01-1.332 3.766l-.182-.064-3.244-1.328v26.226l3.244-1.326a2 2 0 011.689 3.621l-.175.081L34 59.252V62a2 2 0 01-3.99.193L30 62v-2.748l-10.732-4.39-.011-.005-18.014-7.369a1.999 1.999 0 011.332-3.766l.182.064L6 45.112V18.886l-3.242 1.328a2 2 0 01-2.527-.92L.15 19.12a2 2 0 01.919-2.527l.175-.081L29.999 4.747 30 2a2 2 0 012-2zm-2 9.068l-8 3.273v39.316l8 3.272V9.068zm4 0v45.861l8-3.272V12.341l-8-3.273zm-16 4.909l-8 3.273v29.499l8 3.272V13.977zm28 0v36.044l8-3.272V17.25l-8-3.273z"/></g></svg>