<svg xmlns="http://www.w3.org/2000/svg" viewBox="0 0 36 31"><g fill="none"><path fill="#618FFE" d="M10.402 20.765a1.111 1.111 0 101.572 1.571l3.705-3.705a1.11 1.11 0 000-1.57l-3.705-3.706a1.111 1.111 0 00-1.572 1.571l2.657 2.657a.37.37 0 010 .525l-2.657 2.657zm8.197.415h5.928a1.111 1.111 0 100-2.223h-5.928a1.111 1.111 0 100 2.223z"/><path fill="#1E54D5" d="M35.568 4.878A4.446 4.446 0 0031.122.432H4.446A4.446 4.446 0 000 4.878v21.49a4.446 4.446 0 004.446 4.445h26.676a4.446 4.446 0 004.446-4.446V4.878zm-21.26-1.482a1.432 1.432 0 012.507 0c.142.222.221.478.228.741-.007.263-.086.52-.228.741a1.432 1.432 0 01-2.508 0 1.436 1.436 0 01-.228-.74c.007-.264.086-.52.228-.742zm-5.188 0a1.432 1.432 0 012.508 0c.142.222.221.478.228.741-.007.263-.086.52-.228.741a1.432 1.432 0 01-2.508 0 1.436 1.436 0 01-.228-.74c.007-.264.086-.52.228-.742zm-5.279.137a1.482 1.482 0 011.346-.878c.52.006.998.289 1.254.741.142.222.221.478.228.741-.007.263-.086.52-.228.741a1.432 1.432 0 01-2.508 0 1.436 1.436 0 01-.228-.74 1.45 1.45 0 01.136-.605zm28.763 22.834c0 .819-.664 1.482-1.482 1.482H4.446a1.482 1.482 0 01-1.482-1.482V8.213a.37.37 0 01.37-.37h28.9a.37.37 0 01.37.37v18.154z"/></g></svg>