<svg xmlns="http://www.w3.org/2000/svg" viewBox="0 0 36 36"><g fill="none"><path fill="#1E54D5" d="M18.45 18.544l-7.5-2.494a2.643 2.643 0 00-1.65 0l-7.5 2.499A2.622 2.622 0 000 21.036v9.838a2.62 2.62 0 001.8 2.49l7.5 2.501a2.612 2.612 0 001.65 0l7.5-2.499a2.624 2.624 0 001.8-2.491v-9.839a2.7 2.7 0 00-1.8-2.492zm-8.445-.364a.392.392 0 01.238-.002L14.51 19.6a.375.375 0 010 .711c-1.519.515-4.2 1.425-4.8 1.633a.37.37 0 01-.241 0l-4.316-1.439a.375.375 0 010-.712l4.853-1.613zm7.739 13.05l-6.376 2.125a.375.375 0 01-.493-.355v-8.84c0-.16.103-.304.257-.355l6.374-2.125a.377.377 0 01.494.357v8.838a.375.375 0 01-.256.355z"/><path fill="#618FFE" d="M28.375 14.91A2.37 2.37 0 0030 12.657V4.46a2.44 2.44 0 00-1.625-2.25L22.123.12a2.4 2.4 0 00-1.5 0l-6.249 2.087A2.369 2.369 0 0012.75 4.46v8.197c0 1.021.655 1.928 1.624 2.25l6.251 2.085a2.4 2.4 0 001.5 0l6.25-2.082zm-5.758-.473a.375.375 0 01-.492-.355V7.263c0-.161.103-.305.256-.356l4.863-1.62a.37.37 0 01.49.36l-.071 6.861a.372.372 0 01-.258.352l-4.788 1.578zm-1.2-12.181l2.85.95a.375.375 0 010 .71c-1.134.386-2.837.968-3.3 1.13a.375.375 0 01-.243 0l-2.797-.933a.375.375 0 010-.711l3.49-1.146zm13.13 16.77l-4.997-1.668a2.136 2.136 0 00-1.341 0l-5.001 1.668a2.123 2.123 0 00-1.452 2.016V27.6a2.121 2.121 0 001.453 2.016l4.991 1.668c.436.145.907.145 1.343 0l4.999-1.665A2.124 2.124 0 0036 27.6v-6.558a2.186 2.186 0 00-1.453-2.016zm-5.712.474l1.432.477a.375.375 0 010 .711c-.684.236-1.5.519-1.808.629a.369.369 0 01-.244 0l-1.337-.45a.375.375 0 010-.712l1.956-.655zm1.285 9.249a.375.375 0 01-.495-.355v-5.136l3.65-1.218a.377.377 0 01.493.35l.063 4.82a.372.372 0 01-.255.36l-3.456 1.179z"/></g></svg>