<svg xmlns="http://www.w3.org/2000/svg" xmlns:xlink="http://www.w3.org/1999/xlink" viewBox="0 0 48 48"><defs><filter id="a"><feColorMatrix in="SourceGraphic" values="0 0 0 0 1.000000 0 0 0 0 1.000000 0 0 0 0 1.000000 0 0 0 1.000000 0"/></filter><path id="b" d="M0 0h48v48H0z"/></defs><g filter="url(#a)" fill="none" fill-rule="evenodd"><mask id="c" fill="#fff"><use xlink:href="#b"/></mask><path fill="#000" fill-rule="nonzero" d="M6.51 9.361l.071-.002L41.474 9c1.379-.014 2.252 1.458 1.603 2.654l-.036.065-17.815 29.997a1.8 1.8 0 01-3.13-1.776l.035-.062 15.09-25.41a1.2 1.2 0 00-1.044-1.813l-29.558.304c-.97.01-1.77-.75-1.817-1.711l-.002-.07a1.8 1.8 0 011.71-1.817zm5.698 9.877l.07-.002 11.599-.167c1.38-.02 2.26 1.453 1.611 2.652l-.036.065-5.97 10.083a1.8 1.8 0 01-3.133-1.773l.035-.062 3.788-6.398a.599.599 0 00-.524-.906l-7.318.106a1.801 1.801 0 01-1.823-1.704l-.003-.07a1.801 1.801 0 011.704-1.824z" mask="url(#c)"/></g></svg>