<svg xmlns="http://www.w3.org/2000/svg" xmlns:xlink="http://www.w3.org/1999/xlink" viewBox="0 0 48 48"><defs><filter id="a"><feColorMatrix in="SourceGraphic" values="0 0 0 0 1.000000 0 0 0 0 1.000000 0 0 0 0 1.000000 0 0 0 1.000000 0"/></filter><path id="b" d="M0 0h48v48H0z"/></defs><g filter="url(#a)" fill="none" fill-rule="evenodd"><mask id="c" fill="#fff"><use xlink:href="#b"/></mask><path fill="#000" fill-rule="nonzero" d="M24.188 5.25c1.887 0 3.565 1.333 3.565 2.974 0 1.641-1.597 2.974-3.565 2.974-.226 0-.52-.037-.882-.11a1.191 1.191 0 00-.825.13L9.697 18.497a.594.594 0 00.003 1.036l13.859 7.786c.36.202.798.203 1.159.002l13.934-7.751a.595.595 0 00.004-1.037l-4.347-2.47a1.19 1.19 0 00-1.163-.006l-4.59 2.548a.403.403 0 00-.206.31l-.002.044c0 1.642-1.598 2.974-3.566 2.974-1.968 0-3.566-1.332-3.566-2.974 0-1.641 1.598-2.974 3.566-2.974.073 0 .157.004.252.012l.15.015.167.02c.254.035.512-.013.736-.138l6.787-3.767a1.785 1.785 0 011.674-.03l.071.039 9.478 5.384c1.189.675 1.202 2.373.05 3.075l-.064.037-6.34 3.526a.595.595 0 00.012 1.047l6.28 3.305c1.247.657 1.277 2.432.053 3.13L25.016 42.516a1.785 1.785 0 01-1.767 0L4.286 31.683c-1.225-.7-1.191-2.48.06-3.132l6.348-3.315a.595.595 0 00.016-1.046l-6.425-3.609c-1.188-.667-1.214-2.359-.072-3.07l.064-.037 15.779-8.98c.25-.143.439-.37.533-.64l.02-.064c.555-1.65 1.815-2.541 3.579-2.541zm8.804 21.908L25.2 31.64l-.072.04a1.773 1.773 0 01-1.685-.032l-7.767-4.382a1.18 1.18 0 00-1.13-.018l-4.477 2.343a.596.596 0 00-.02 1.044l13.68 7.833c.363.208.81.208 1.174 0l13.798-7.888a.597.597 0 00-.019-1.044l-4.548-2.4c-.36-.19-.79-.182-1.142.02z" mask="url(#c)"/></g></svg>