<svg xmlns="http://www.w3.org/2000/svg" xmlns:xlink="http://www.w3.org/1999/xlink" viewBox="0 0 48 48"><defs><filter id="a"><feColorMatrix in="SourceGraphic" values="0 0 0 0 1.000000 0 0 0 0 1.000000 0 0 0 0 1.000000 0 0 0 1.000000 0"/></filter><path id="b" d="M0 0h48v48H0z"/></defs><g filter="url(#a)" fill="none" fill-rule="evenodd"><mask id="c" fill="#fff"><use xlink:href="#b"/></mask><path fill="#000" fill-rule="nonzero" d="M24.767 1.998l.07.038L44.09 13.008c1.214.692 1.206 2.433.012 3.121l-.065.036-4.551 2.394a.6.6 0 00-.017 1.052l4.685 2.66c1.2.68 1.214 2.394.051 3.101l-.065.038-4.743 2.636a.6.6 0 00.012 1.056l4.628 2.433.065.036c1.173.676 1.201 2.368.052 3.083l-.064.038-19.255 10.972-.07.038a1.8 1.8 0 01-1.643 0l-.07-.038L3.908 34.737l-.064-.038c-1.15-.717-1.119-2.412.058-3.086l.066-.035 4.755-2.48a.6.6 0 00.016-1.056l-4.777-2.681c-1.2-.674-1.226-2.38-.073-3.097l.064-.038 4.649-2.643a.6.6 0 00-.019-1.053l-4.615-2.407c-1.241-.647-1.296-2.391-.124-3.122l.064-.038L23.053 2.037a1.8 1.8 0 011.714-.039zM34.1 30.99l-9.227 5.128a1.8 1.8 0 01-1.683.035l-.072-.039-9.098-5.107a1.199 1.199 0 00-1.142-.017L9.53 32.737a.6.6 0 00-.019 1.053l13.84 7.899c.369.21.821.21 1.19 0l13.96-7.955a.6.6 0 00-.017-1.052l-3.242-1.705a1.197 1.197 0 00-1.141.013zM23.408 15.307l-13.983 7.95a.599.599 0 00.003 1.044l13.991 7.854c.364.204.807.205 1.17.002l14.069-7.818a.6.6 0 00.004-1.046l-14.068-7.986a1.198 1.198 0 00-1.186 0zm-.057-9.296l-13.84 7.9a.6.6 0 00.02 1.053l3.173 1.655c.362.189.794.18 1.148-.02l9.258-5.264a1.801 1.801 0 011.706-.04l.073.04 9.341 5.302c.356.202.79.21 1.153.018l3.102-1.636a.599.599 0 00.018-1.052L24.54 6.01a1.2 1.2 0 00-1.189 0z" mask="url(#c)"/></g></svg>