<svg xmlns="http://www.w3.org/2000/svg" xmlns:xlink="http://www.w3.org/1999/xlink" viewBox="0 0 48 48"><defs><filter id="a"><feColorMatrix in="SourceGraphic" values="0 0 0 0 1.000000 0 0 0 0 1.000000 0 0 0 0 1.000000 0 0 0 1.000000 0"/></filter><path id="b" d="M0 0h48v48H0z"/></defs><g filter="url(#a)" fill="none" fill-rule="evenodd"><mask id="c" fill="#fff"><use xlink:href="#b"/></mask><path fill="#000" fill-rule="nonzero" d="M18.105 10.998l.062.034 5.35 3.015c.365.206.811.206 1.177 0l5.304-2.984a1.801 1.801 0 011.826 3.102l-.06.036-3.063 1.723a.598.598 0 00-.001 1.045l8.268 4.661c.366.206.813.206 1.179 0l5.112-2.881a1.8 1.8 0 011.829 3.1l-.061.036-2.877 1.621a.601.601 0 000 1.045l2.893 1.631a1.8 1.8 0 01-1.706 3.17l-.062-.034-5.128-2.89a1.197 1.197 0 00-1.179 0l-8.359 4.711a.602.602 0 000 1.046l3.454 1.946a1.8 1.8 0 01-1.706 3.17l-.062-.034-5.689-3.207a1.202 1.202 0 00-1.179 0l-5.737 3.235a1.8 1.8 0 01-1.829-3.1l.06-.036 3.503-1.974a.601.601 0 000-1.046l-8.285-4.67a1.2 1.2 0 00-1.178 0l-4.878 2.745a1.8 1.8 0 01-1.827-3.102l.061-.035 2.638-1.485a.599.599 0 000-1.045l-2.633-1.485a1.8 1.8 0 011.706-3.169l.062.033 4.873 2.747c.366.206.813.207 1.178 0l8.367-4.707a.599.599 0 000-1.046L16.4 14.168a1.8 1.8 0 011.706-3.17zm5.41 7.844l-8.367 4.708a.6.6 0 00-.001 1.046l8.28 4.667c.366.207.813.207 1.18 0l8.358-4.712a.6.6 0 000-1.045l-8.273-4.663a1.2 1.2 0 00-1.178 0z" mask="url(#c)"/></g></svg>