<svg viewBox="0 0 416 130" xmlns="http://www.w3.org/2000/svg"><g fill="none"><path d="M58.044 5.329l.186.1 51.346 29.26c3.237 1.844 3.216 6.486.032 8.323l-.174.095-12.136 6.382a1.6 1.6 0 00-.045 2.808l12.495 7.092c3.2 1.816 3.236 6.383.135 8.27l-.173.1-12.65 7.03a1.6 1.6 0 00.033 2.814l12.341 6.49.174.096c3.127 1.804 3.203 6.314.139 8.222l-.17.101-51.347 29.26-.186.1a4.8 4.8 0 01-4.383-.001l-.186-.101L2.42 92.632l-.17-.102c-3.069-1.913-2.983-6.432.155-8.227l.174-.096 12.68-6.614a1.6 1.6 0 00.044-2.813l-12.74-7.152c-3.199-1.796-3.268-6.346-.193-8.257l.17-.101 12.397-7.048a1.6 1.6 0 00-.05-2.81L2.58 42.994c-3.308-1.726-3.453-6.376-.33-8.323l.17-.102L53.476 5.43a4.8 4.8 0 014.57-.102zm24.891 77.31L58.332 96.316a4.8 4.8 0 01-4.49.092l-.192-.102-24.26-13.619a3.2 3.2 0 00-3.046-.046l-8.93 4.657a1.6 1.6 0 00-.053 2.809l36.91 21.065a3.2 3.2 0 003.17 0l37.23-21.213a1.6 1.6 0 00-.048-2.807l-8.643-4.546a3.2 3.2 0 00-3.045.035zM54.422 40.82L17.134 62.015a1.6 1.6 0 00.008 2.786l37.31 20.944a3.2 3.2 0 003.12.007l37.515-20.85a1.6 1.6 0 00.013-2.79L57.583 40.817a3.2 3.2 0 00-3.16.001zm-.152-24.79L17.362 37.095a1.6 1.6 0 00.053 2.808l8.463 4.415a3.2 3.2 0 003.062-.056l24.688-14.035a4.8 4.8 0 014.548-.106l.193.105 24.912 14.14a3.2 3.2 0 003.072.048l8.275-4.363a1.6 1.6 0 00.046-2.806L57.44 16.03a3.2 3.2 0 00-3.17.001z" fill="#0060E0"/><path d="M303.232 85.856c2.73 0 5.141.672 7.232 2.016 2.09 1.344 3.712 3.232 4.864 5.664 1.152 2.432 1.728 5.27 1.728 8.512 0 3.2-.576 6.005-1.728 8.416-1.152 2.41-2.773 4.277-4.864 5.6-2.09 1.323-4.501 1.984-7.232 1.984-2.603 0-4.832-.576-6.688-1.728-1.856-1.152-3.253-2.816-4.192-4.992v16.64l-.005.171c-.026.387-.142.693-.347.917-.235.256-.565.384-.992.384-.896 0-1.344-.49-1.344-1.472V87.392l.007-.178c.029-.344.144-.627.345-.846.235-.256.565-.384.992-.384.427 0 .757.128.992.384s.352.597.352 1.024v5.056l.17-.371c.935-1.953 2.275-3.46 4.022-4.525 1.856-1.13 4.085-1.696 6.688-1.696zm99.712 0c3.925 0 7.019 1.28 9.28 3.84 2.261 2.56 3.392 6.059 3.392 10.496 0 .768-.15 1.323-.448 1.664-.299.341-.832.512-1.6.512h-22.016l.008.444c.111 3.966 1.165 7.04 3.16 9.22 2.07 2.261 4.981 3.392 8.736 3.392 2.048 0 3.744-.277 5.088-.832a20.506 20.506 0 003.936-2.176c.896-.597 1.472-.896 1.728-.896a1 1 0 01.768.352c.213.235.32.501.32.8 0 .427-.16.843-.48 1.248-.32.405-.885.864-1.696 1.376-3.072 1.835-6.25 2.752-9.536 2.752-4.65 0-8.31-1.43-10.976-4.288-2.667-2.859-4-6.784-4-11.776 0-3.2.597-6.016 1.792-8.448 1.195-2.432 2.88-4.32 5.056-5.664 2.176-1.344 4.672-2.016 7.488-2.016zm-32.384 0c1.579 0 3.093.213 4.544.64 1.45.427 2.73 1.024 3.84 1.792.81.597 1.397 1.12 1.76 1.568.363.448.544.907.544 1.376 0 .299-.107.565-.32.8-.213.235-.47.352-.768.352-.341 0-.896-.32-1.664-.96a17.892 17.892 0 00-3.488-2.112c-1.216-.555-2.741-.832-4.576-.832-2.39 0-4.32.565-5.792 1.696-1.472 1.13-2.208 2.613-2.208 4.448 0 1.11.235 2.016.704 2.72.47.704 1.27 1.312 2.4 1.824s2.741 1.003 4.832 1.472c2.944.725 5.205 1.461 6.784 2.208 1.579.747 2.699 1.643 3.36 2.688.661 1.045.992 2.379.992 4 0 2.56-1.056 4.619-3.168 6.176-2.112 1.557-4.917 2.336-8.416 2.336-1.664 0-3.328-.245-4.992-.736-1.664-.49-3.157-1.163-4.48-2.016-.853-.555-1.43-1.013-1.728-1.376a1.907 1.907 0 01-.448-1.248c0-.299.107-.565.32-.8.213-.235.47-.352.768-.352.213 0 .501.117.864.352s.608.395.736.48a20.078 20.078 0 003.872 2.208c1.344.576 3.04.864 5.088.864 2.773 0 4.907-.512 6.4-1.536 1.493-1.024 2.24-2.475 2.24-4.352 0-1.11-.267-2.027-.8-2.752-.533-.725-1.408-1.355-2.624-1.888-1.216-.533-2.955-1.056-5.216-1.568-3.755-.853-6.443-1.941-8.064-3.264-1.621-1.323-2.432-3.072-2.432-5.248 0-2.645 1.035-4.8 3.104-6.464 2.07-1.664 4.747-2.496 8.032-2.496zm-123.072 0c3.925 0 7.019 1.28 9.28 3.84 2.261 2.56 3.392 6.059 3.392 10.496 0 .768-.15 1.323-.448 1.664-.299.341-.832.512-1.6.512h-22.016l.008.444c.111 3.966 1.165 7.04 3.16 9.22 2.07 2.261 4.981 3.392 8.736 3.392 2.048 0 3.744-.277 5.088-.832a20.506 20.506 0 003.936-2.176c.896-.597 1.472-.896 1.728-.896a1 1 0 01.768.352c.213.235.32.501.32.8 0 .427-.16.843-.48 1.248-.32.405-.885.864-1.696 1.376-3.072 1.835-6.25 2.752-9.536 2.752-4.65 0-8.31-1.43-10.976-4.288-2.667-2.859-4-6.784-4-11.776 0-3.2.597-6.016 1.792-8.448 1.195-2.432 2.88-4.32 5.056-5.664 2.176-1.344 4.672-2.016 7.488-2.016zm-89.024 0c3.925 0 7.019 1.28 9.28 3.84 2.261 2.56 3.392 6.059 3.392 10.496 0 .768-.15 1.323-.448 1.664-.299.341-.832.512-1.6.512h-22.016l.008.444c.111 3.966 1.165 7.04 3.16 9.22 2.07 2.261 4.981 3.392 8.736 3.392 2.048 0 3.744-.277 5.088-.832a20.506 20.506 0 003.936-2.176c.896-.597 1.472-.896 1.728-.896a1 1 0 01.768.352c.213.235.32.501.32.8 0 .427-.16.843-.48 1.248-.32.405-.885.864-1.696 1.376-3.072 1.835-6.25 2.752-9.536 2.752-4.65 0-8.31-1.43-10.976-4.288-2.667-2.859-4-6.784-4-11.776 0-3.2.597-6.016 1.792-8.448 1.195-2.432 2.88-4.32 5.056-5.664 2.176-1.344 4.672-2.016 7.488-2.016zm59.328-9.216c.384 0 .704.128.96.384s.384.619.384 1.088v8.512h8.512l.125.007c.246.029.46.144.643.345.213.235.32.523.32.864 0 .299-.096.555-.288.768-.192.213-.459.32-.8.32h-8.512v17.984l.003.374c.047 2.706.611 4.65 1.693 5.834 1.13 1.237 2.89 1.963 5.28 2.176l1.728.128.17.02c.826.12 1.238.54 1.238 1.26 0 .939-.619 1.344-1.856 1.216l-1.664-.128-.38-.03c-3.006-.262-5.226-1.223-6.66-2.882-1.493-1.728-2.24-4.405-2.24-8.032v-17.92h-5.312l-.125-.007a1.044 1.044 0 01-.643-.313 1.047 1.047 0 01-.32-.768c0-.341.107-.63.32-.864.213-.235.47-.352.768-.352h5.312v-8.512l.006-.171c.028-.387.154-.693.378-.917.256-.256.576-.384.96-.384zm130.24 9.344c.427 0 .757.128.992.384s.352.597.352 1.024v29.056l-.005.171c-.026.387-.142.693-.347.917-.235.256-.565.384-.992.384-.427 0-.757-.128-.992-.384s-.352-.619-.352-1.088V87.392l.007-.178c.029-.344.144-.627.345-.846.235-.256.565-.384.992-.384zm-8.192 0l.185.005c.413.02.703.115.871.283.192.192.288.48.288.864 0 .725-.448 1.152-1.344 1.28l-1.92.192-.37.04c-2.931.352-5.154 1.49-6.67 3.416-1.579 2.005-2.368 4.31-2.368 6.912v17.472l-.005.171c-.026.387-.142.693-.347.917-.235.256-.565.384-.992.384-.427 0-.757-.128-.992-.384s-.352-.619-.352-1.088V87.456l.005-.168c.05-.87.496-1.304 1.339-1.304.384 0 .704.128.96.384s.384.619.384 1.088v4.608l.156-.302c1.865-3.477 5.14-5.382 9.828-5.714l.896-.064h.448zm-57.024 0l.185.005c.413.02.703.115.871.283.192.192.288.48.288.864 0 .725-.448 1.152-1.344 1.28l-1.92.192-.37.04c-2.931.352-5.154 1.49-6.67 3.416-1.579 2.005-2.368 4.31-2.368 6.912v17.472l-.005.171c-.026.387-.142.693-.347.917-.235.256-.565.384-.992.384-.427 0-.757-.128-.992-.384s-.352-.619-.352-1.088V87.456l.005-.168c.05-.87.496-1.304 1.339-1.304.384 0 .704.128.96.384s.384.619.384 1.088v4.608l.156-.302c1.865-3.477 5.14-5.382 9.828-5.714l.896-.064h.448zm-89.664-.128c7.51 0 11.264 3.925 11.264 11.776v18.816l-.005.168c-.05.87-.496 1.304-1.339 1.304-.427 0-.757-.128-.992-.384s-.352-.619-.352-1.088v-18.56l-.003-.406c-.053-3.078-.713-5.342-1.981-6.794-1.323-1.515-3.456-2.272-6.4-2.272-3.285 0-5.92 1.013-7.904 3.04s-2.976 4.725-2.976 8.096v16.896l-.006.171c-.025.387-.14.693-.346.917-.235.256-.565.384-.992.384-.427 0-.757-.128-.992-.384s-.352-.619-.352-1.088V87.456l.005-.168c.05-.87.496-1.304 1.339-1.304.427 0 .747.128.96.384.213.256.32.619.32 1.088v4.736l.17-.356c.937-1.875 2.299-3.324 4.086-4.348 1.899-1.088 4.064-1.632 6.496-1.632zm110.08 2.624c-3.499 0-6.187 1.163-8.064 3.488-1.877 2.325-2.816 5.643-2.816 9.952 0 4.31.939 7.637 2.816 9.984 1.877 2.347 4.544 3.52 8 3.52 3.456 0 6.144-1.163 8.064-3.488s2.88-5.621 2.88-9.888c0-4.267-.96-7.595-2.88-9.984-1.92-2.39-4.587-3.584-8-3.584zm99.712-.128c-3.243 0-5.856 1.013-7.84 3.04s-3.147 4.853-3.488 8.48h21.44c-.085-3.712-1.003-6.56-2.752-8.544-1.75-1.984-4.203-2.976-7.36-2.976zm-155.456 0c-3.243 0-5.856 1.013-7.84 3.04s-3.147 4.853-3.488 8.48h21.44c-.085-3.712-1.003-6.56-2.752-8.544-1.75-1.984-4.203-2.976-7.36-2.976zm-89.024 0c-3.243 0-5.856 1.013-7.84 3.04s-3.147 4.853-3.488 8.48h21.44c-.085-3.712-1.003-6.56-2.752-8.544-1.75-1.984-4.203-2.976-7.36-2.976zm189.568-14.72c.683 0 1.248.213 1.696.64.448.427.672 1.003.672 1.728 0 .683-.235 1.237-.704 1.664-.47.427-1.024.64-1.664.64a2.39 2.39 0 01-1.664-.64c-.47-.427-.704-.981-.704-1.664 0-.725.224-1.301.672-1.728.448-.427 1.013-.64 1.696-.64zM148.34 6.4c.982 0 1.83.318 2.546.953.743.663 1.114 1.55 1.114 2.662l-.001 9.184 8.801.001a2.4 2.4 0 012.394 2.236l.006.164a2.4 2.4 0 01-2.236 2.394L160.8 24l-8.801-.001.001 23.415.001.466c.01 2.144.097 3.855.258 5.135.202 1.4.39 2.786.909 3.515.547.759 1.167 1.316 1.859 1.52.629.212 1.484.328 2.566.347l.331.003h4.152a2.802 2.802 0 01.262 5.58l-.167.015-.053.002V64h-5.75l-.411-.004c-3.668-.077-6.558-1.184-8.67-3.322-2.125-2.122-3.22-5.67-3.284-10.645l-.003-.471-.001-25.559L138.4 24a2.4 2.4 0 01-2.394-2.236L136 21.6a2.4 2.4 0 012.236-2.394l.164-.006 5.765-.001.635-9.184c0-1.165.345-2.066 1.034-2.701.69-.61 1.525-.914 2.506-.914zM313.666 0c1.061 0 1.975.354 2.74 1.062.743.661 1.14 1.554 1.189 2.678l.005.244v34.984l20.112-18.14c.585-.497 1.205-.77 1.862-.82l.22-.008c.945 0 1.772.363 2.48 1.09.74.727 1.108 1.541 1.108 2.442 0 .746-.297 1.432-.893 2.056l-.17.168-16.08 14.173 17.586 18.228c.65.668.975 1.424.975 2.267 0 .93-.384 1.759-1.152 2.486-.738.727-1.595 1.09-2.57 1.09-.959 0-1.792-.35-2.497-1.053l-.16-.168L317.6 40.976v18.996c0 1.157-.36 2.095-1.078 2.815l-.16.15c-.795.709-1.738 1.063-2.828 1.063-1.09 0-2.019-.34-2.785-1.018-.715-.661-1.096-1.58-1.144-2.754l-.005-.256V3.984c0-1.24.398-2.213 1.193-2.922A4.277 4.277 0 01313.666 0zm-124.09 19.2c.997 0 1.776.358 2.336 1.075.592.717.888 1.553.888 2.509 0 .896-.265 1.672-.794 2.33-.53.626-1.293.94-2.29.94-4.205 0-7.076 1.045-9.412 3.136-2.25 2.04-3.45 4.749-3.503 8.126l-.001 22.507c0 1.285-.413 2.31-1.238 3.075A4.03 4.03 0 01172.734 64c-1.09 0-2.019-.352-2.785-1.056-.736-.706-1.119-1.695-1.147-2.967l-.002-.154V23.33c0-1.285.398-2.295 1.193-3.03.825-.734 1.783-1.101 2.873-1.101 1.061 0 1.975.367 2.74 1.102.764.705 1.162 1.664 1.192 2.877l.002.152v5.631l.117-.39c.812-2.603 2.33-4.786 4.555-6.55 2.368-1.881 4.802-2.822 8.104-2.822zm50.09 0c4.167 0 8.041 1.074 10.93 3.024 2.29 1.547 4.15 3.93 4.903 6.279.431 1.349.497 1.847.5 3.806.003 1.219-.03 2.041-.097 2.422-.676 3.85-2.285 6.517-5.08 8.417-2.248 1.528-5.07 2.422-8.763 2.775-1.859.178-5.259.16-7.461-.037-1.87-.168-4.164-.463-5.143-.662-.82-.166-3.626-.643-3.65-.62-.01.011-.143.864-.296 1.897-.245 1.649-.28 2.06-.284 3.377v.646c.006.794.043 1.043.172 1.545.51 1.987 1.637 3.316 3.68 4.343 2.009 1.01 4.115 1.448 7.298 1.516 1.41.03 2.131.009 3.013-.086 2.137-.23 3.111-.483 5.95-1.544.708-.265 1.43-.505 1.604-.535.375-.063 1.074.068 1.482.278.735.38 1.353 1.393 1.35 2.212-.005.957-.322 1.537-1.254 2.29-2.23 1.803-5.075 2.908-8.472 3.291-1.21.137-3.976.157-5.312.039-3.762-.332-6.374-.986-8.76-2.194-1.863-.942-3.284-2.11-4.345-3.574l-.463-.634-.03-.04c-.01-.01-.183.197-.385.462-.892 1.17-2.257 2.428-3.591 3.31-1.925 1.272-4.69 2.243-7.487 2.63-.834.115-3.601.21-4.311.147-4.902-.43-8.648-1.932-11.372-4.563-2.772-2.677-3.962-6.166-3.492-10.246.54-4.694 2.734-8.008 6.582-9.942 2.965-1.49 5.923-2.058 10.74-2.059 3.423-.001 6.29.284 10.665 1.057 1.082.191 2.018.348 2.081.348.092 0 .164-.35.363-1.749.359-2.531.423-3.405.325-4.419-.114-1.18-.262-1.742-.702-2.657-1.135-2.36-3.83-3.804-8.156-4.371-1.237-.162-4.093-.185-5.332-.042-2.077.238-3.236.542-5.82 1.527-1.512.576-1.519.577-2.122.541-1.037-.061-1.745-.539-2.199-1.482-.187-.388-.22-.549-.22-1.072 0-.786.202-1.203.903-1.87 1.571-1.494 4.216-2.767 6.886-3.314 1.71-.35 2.551-.423 4.803-.42 2.33.007 3.82.138 5.892.53 3.444.65 6.06 1.798 8.032 3.523.585.512 1.468 1.52 1.846 2.108.115.18.234.327.264.327s.221-.216.425-.48c2.987-3.868 8.016-6.058 13.91-6.055zM286.918 0l-.001.003.053.002a2.8 2.8 0 01.078 5.584l-.173.011h-4.152c-1.24 0-2.205.117-2.897.35-.692.204-1.312.761-1.86 1.52-.518.729-.706 2.114-.908 3.515-.161 1.28-.247 2.991-.258 5.135l-.001.466-.001 2.613L284 19.2a2.4 2.4 0 010 4.8l-7.2-.001v35.973c0 1.157-.36 2.095-1.078 2.815l-.16.15c-.795.709-1.738 1.063-2.828 1.063-1.09 0-2.019-.34-2.785-1.018-.715-.661-1.096-1.58-1.144-2.754l-.005-.256V23.999l-6.4.001a2.4 2.4 0 010-4.8l6.399-.001.001-4.757c0-5.222 1.095-8.928 3.286-11.116 2.113-2.138 5.003-3.245 8.67-3.322l.412-.004h5.75zm10.747 19.2c1.061 0 1.975.367 2.74 1.102.743.685 1.14 1.61 1.189 2.776l.005.253v36.492c0 1.285-.413 2.31-1.238 3.075A4.03 4.03 0 01297.534 64c-1.09 0-2.019-.352-2.785-1.056-.715-.685-1.096-1.637-1.144-2.856l-.005-.265V23.33c0-1.285.398-2.295 1.193-3.03.825-.734 1.783-1.101 2.873-1.101zM208.46 43.031c-2.978.171-4.192.437-5.98 1.312-.917.448-1.549.934-2.05 1.575-.717.92-1.15 1.834-1.452 3.066-.22.896-.242 3.243-.038 3.999.343 1.274.751 1.995 1.668 2.95 1.256 1.306 2.912 2.178 4.965 2.614 1.05.223 1.02.22 2.777.194 1.276-.02 1.753-.057 2.275-.175 2.216-.503 4.19-1.637 5.623-3.229 1.308-1.452 2.38-3.627 2.97-6.024.333-1.351.886-5.112.764-5.19-.049-.03-.341-.079-.65-.107a56.616 56.616 0 01-1.37-.161l-.392-.05a93.12 93.12 0 01-.193-.026c-4.556-.603-7.35-.838-8.917-.748zm27.782-18.046c-1.622.305-2.994.86-4.203 1.702-2.234 1.556-3.776 3.9-4.635 7.049-.337 1.236-.427 1.71-.728 3.842l-.277 1.966.372.043c1.122.128 3.652.443 5.122.638.924.123 2.06.254 2.521.291 1.234.1 3.37.099 4.723.004l.32-.025c1.846-.167 2.98-.462 4.375-1.136 1.16-.561 1.834-1.135 2.472-2.102.938-1.425 1.304-2.774 1.295-4.777-.007-1.428-.125-2.022-.603-3.047-1.07-2.29-3.584-3.931-6.88-4.491-.823-.14-3.031-.115-3.874.043zM297.64 0c1.422 0 2.571.393 3.446 1.178.875.76 1.313 1.774 1.313 3.041 0 1.242-.438 2.255-1.313 3.04-.875.761-2.037 1.141-3.487 1.141-1.45 0-2.612-.38-3.487-1.14-.875-.786-1.313-1.8-1.313-3.041 0-1.242.438-2.255 1.313-3.04C295.015.392 296.19 0 297.64 0z" fill="#000"/></g></svg>